<svg xmlns="http://www.w3.org/2000/svg" xmlns:xlink="http://www.w3.org/1999/xlink" version="1.1" class="marks" width="615" height="377" viewBox="0 0 615 377"><rect width="615" height="377" fill="white"/><g fill="none" stroke-miterlimit="10" transform="translate(39,27)"><g class="mark-group role-frame root" role="graphics-object" aria-roledescription="group mark container"><g transform="translate(0,0)"><path class="background" aria-hidden="true" d="M0.5,0.5h500v300h-500Z" stroke="#ddd"/><g><g class="mark-group role-axis" aria-hidden="true"><g transform="translate(0.5,0.5)"><path class="background" aria-hidden="true" d="M0,0h0v0h0Z" pointer-events="none"/><g><g class="mark-rule role-axis-grid" pointer-events="none"><line transform="translate(0,300)" x2="500" y2="0" stroke="#ddd" stroke-width="1" opacity="1"/><line transform="translate(0,273)" x2="500" y2="0" stroke="#ddd" stroke-width="1" opacity="1"/><line transform="translate(0,245)" x2="500" y2="0" stroke="#ddd" stroke-width="1" opacity="1"/><line transform="translate(0,218)" x2="500" y2="0" stroke="#ddd" stroke-width="1" opacity="1"/><line transform="translate(0,191)" x2="500" y2="0" stroke="#ddd" stroke-width="1" opacity="1"/><line transform="translate(0,164)" x2="500" y2="0" stroke="#ddd" stroke-width="1" opacity="1"/><line transform="translate(0,136)" x2="500" y2="0" stroke="#ddd" stroke-width="1" opacity="1"/><line transform="translate(0,109)" x2="500" y2="0" stroke="#ddd" stroke-width="1" opacity="1"/><line transform="translate(0,82)" x2="500" y2="0" stroke="#ddd" stroke-width="1" opacity="1"/><line transform="translate(0,55)" x2="500" y2="0" stroke="#ddd" stroke-width="1" opacity="1"/><line transform="translate(0,27)" x2="500" y2="0" stroke="#ddd" stroke-width="1" opacity="1"/><line transform="translate(0,0)" x2="500" y2="0" stroke="#ddd" stroke-width="1" opacity="1"/></g></g><path class="foreground" aria-hidden="true" d="" pointer-events="none" display="none"/></g></g><g class="mark-group role-axis" role="graphics-symbol" aria-roledescription="axis" aria-label="X-axis titled 'Year' for a discrete scale with 20 values: 2005, 2006, 2007, 2008, 2009, ending with 2024"><g transform="translate(0.5,300.5)"><path class="background" aria-hidden="true" d="M0,0h0v0h0Z" pointer-events="none"/><g><g class="mark-rule role-axis-tick" pointer-events="none"><line transform="translate(13,0)" x2="0" y2="5" stroke="#888" stroke-width="1" opacity="1"/><line transform="translate(38,0)" x2="0" y2="5" stroke="#888" stroke-width="1" opacity="1"/><line transform="translate(63,0)" x2="0" y2="5" stroke="#888" stroke-width="1" opacity="1"/><line transform="translate(88,0)" x2="0" y2="5" stroke="#888" stroke-width="1" opacity="1"/><line transform="translate(113,0)" x2="0" y2="5" stroke="#888" stroke-width="1" opacity="1"/><line transform="translate(138,0)" x2="0" y2="5" stroke="#888" stroke-width="1" opacity="1"/><line transform="translate(163,0)" x2="0" y2="5" stroke="#888" stroke-width="1" opacity="1"/><line transform="translate(188,0)" x2="0" y2="5" stroke="#888" stroke-width="1" opacity="1"/><line transform="translate(213,0)" x2="0" y2="5" stroke="#888" stroke-width="1" opacity="1"/><line transform="translate(238,0)" x2="0" y2="5" stroke="#888" stroke-width="1" opacity="1"/><line transform="translate(263,0)" x2="0" y2="5" stroke="#888" stroke-width="1" opacity="1"/><line transform="translate(288,0)" x2="0" y2="5" stroke="#888" stroke-width="1" opacity="1"/><line transform="translate(313,0)" x2="0" y2="5" stroke="#888" stroke-width="1" opacity="1"/><line transform="translate(338,0)" x2="0" y2="5" stroke="#888" stroke-width="1" opacity="1"/><line transform="translate(363,0)" x2="0" y2="5" stroke="#888" stroke-width="1" opacity="1"/><line transform="translate(388,0)" x2="0" y2="5" stroke="#888" stroke-width="1" opacity="1"/><line transform="translate(413,0)" x2="0" y2="5" stroke="#888" stroke-width="1" opacity="1"/><line transform="translate(438,0)" x2="0" y2="5" stroke="#888" stroke-width="1" opacity="1"/><line transform="translate(463,0)" x2="0" y2="5" stroke="#888" stroke-width="1" opacity="1"/><line transform="translate(488,0)" x2="0" y2="5" stroke="#888" stroke-width="1" opacity="1"/></g><g class="mark-text role-axis-label" pointer-events="none"><text text-anchor="end" transform="translate(12.5,7) rotate(270) translate(0,3)" font-family="sans-serif" font-size="10px" fill="#000" opacity="1">2005</text><text text-anchor="end" transform="translate(37.5,7) rotate(270) translate(0,3)" font-family="sans-serif" font-size="10px" fill="#000" opacity="1">2006</text><text text-anchor="end" transform="translate(62.5,7) rotate(270) translate(0,3)" font-family="sans-serif" font-size="10px" fill="#000" opacity="1">2007</text><text text-anchor="end" transform="translate(87.5,7) rotate(270) translate(0,3)" font-family="sans-serif" font-size="10px" fill="#000" opacity="1">2008</text><text text-anchor="end" transform="translate(112.5,7) rotate(270) translate(0,3)" font-family="sans-serif" font-size="10px" fill="#000" opacity="1">2009</text><text text-anchor="end" transform="translate(137.5,7) rotate(270) translate(0,3)" font-family="sans-serif" font-size="10px" fill="#000" opacity="1">2010</text><text text-anchor="end" transform="translate(162.5,7) rotate(270) translate(0,3)" font-family="sans-serif" font-size="10px" fill="#000" opacity="1">2011</text><text text-anchor="end" transform="translate(187.5,7) rotate(270) translate(0,3)" font-family="sans-serif" font-size="10px" fill="#000" opacity="1">2012</text><text text-anchor="end" transform="translate(212.5,7) rotate(270) translate(0,3)" font-family="sans-serif" font-size="10px" fill="#000" opacity="1">2013</text><text text-anchor="end" transform="translate(237.5,7) rotate(270) translate(0,3)" font-family="sans-serif" font-size="10px" fill="#000" opacity="1">2014</text><text text-anchor="end" transform="translate(262.5,7) rotate(270) translate(0,3)" font-family="sans-serif" font-size="10px" fill="#000" opacity="1">2015</text><text text-anchor="end" transform="translate(287.5,7) rotate(270) translate(0,3)" font-family="sans-serif" font-size="10px" fill="#000" opacity="1">2016</text><text text-anchor="end" transform="translate(312.5,7) rotate(270) translate(0,3)" font-family="sans-serif" font-size="10px" fill="#000" opacity="1">2017</text><text text-anchor="end" transform="translate(337.5,7) rotate(270) translate(0,3)" font-family="sans-serif" font-size="10px" fill="#000" opacity="1">2018</text><text text-anchor="end" transform="translate(362.5,7) rotate(270) translate(0,3)" font-family="sans-serif" font-size="10px" fill="#000" opacity="1">2019</text><text text-anchor="end" transform="translate(387.5,7) rotate(270) translate(0,3)" font-family="sans-serif" font-size="10px" fill="#000" opacity="1">2020</text><text text-anchor="end" transform="translate(412.5,7) rotate(270) translate(0,3)" font-family="sans-serif" font-size="10px" fill="#000" opacity="1">2021</text><text text-anchor="end" transform="translate(437.5,7) rotate(270) translate(0,3)" font-family="sans-serif" font-size="10px" fill="#000" opacity="1">2022</text><text text-anchor="end" transform="translate(462.5,7) rotate(270) translate(0,3)" font-family="sans-serif" font-size="10px" fill="#000" opacity="1">2023</text><text text-anchor="end" transform="translate(487.5,7) rotate(270) translate(0,3)" font-family="sans-serif" font-size="10px" fill="#000" opacity="1">2024</text></g><g class="mark-rule role-axis-domain" pointer-events="none"><line transform="translate(0,0)" x2="500" y2="0" stroke="#888" stroke-width="1" opacity="1"/></g><g class="mark-text role-axis-title" pointer-events="none"><text text-anchor="middle" transform="translate(250,42.24609375)" font-family="sans-serif" font-size="11px" font-weight="bold" fill="#000" opacity="1">Year</text></g></g><path class="foreground" aria-hidden="true" d="" pointer-events="none" display="none"/></g></g><g class="mark-group role-axis" role="graphics-symbol" aria-roledescription="axis" aria-label="Y-axis titled 'Overnight stays per total population (%)' for a linear scale with values from 0 to 55"><g transform="translate(0.5,0.5)"><path class="background" aria-hidden="true" d="M0,0h0v0h0Z" pointer-events="none"/><g><g class="mark-rule role-axis-tick" pointer-events="none"><line transform="translate(0,300)" x2="-5" y2="0" stroke="#888" stroke-width="1" opacity="1"/><line transform="translate(0,273)" x2="-5" y2="0" stroke="#888" stroke-width="1" opacity="1"/><line transform="translate(0,245)" x2="-5" y2="0" stroke="#888" stroke-width="1" opacity="1"/><line transform="translate(0,218)" x2="-5" y2="0" stroke="#888" stroke-width="1" opacity="1"/><line transform="translate(0,191)" x2="-5" y2="0" stroke="#888" stroke-width="1" opacity="1"/><line transform="translate(0,164)" x2="-5" y2="0" stroke="#888" stroke-width="1" opacity="1"/><line transform="translate(0,136)" x2="-5" y2="0" stroke="#888" stroke-width="1" opacity="1"/><line transform="translate(0,109)" x2="-5" y2="0" stroke="#888" stroke-width="1" opacity="1"/><line transform="translate(0,82)" x2="-5" y2="0" stroke="#888" stroke-width="1" opacity="1"/><line transform="translate(0,55)" x2="-5" y2="0" stroke="#888" stroke-width="1" opacity="1"/><line transform="translate(0,27)" x2="-5" y2="0" stroke="#888" stroke-width="1" opacity="1"/><line transform="translate(0,0)" x2="-5" y2="0" stroke="#888" stroke-width="1" opacity="1"/></g><g class="mark-text role-axis-label" pointer-events="none"><text text-anchor="end" transform="translate(-7,303)" font-family="sans-serif" font-size="10px" fill="#000" opacity="1">0</text><text text-anchor="end" transform="translate(-7,275.7272727272727)" font-family="sans-serif" font-size="10px" fill="#000" opacity="1">5</text><text text-anchor="end" transform="translate(-7,248.45454545454544)" font-family="sans-serif" font-size="10px" fill="#000" opacity="1">10</text><text text-anchor="end" transform="translate(-7,221.1818181818182)" font-family="sans-serif" font-size="10px" fill="#000" opacity="1">15</text><text text-anchor="end" transform="translate(-7,193.9090909090909)" font-family="sans-serif" font-size="10px" fill="#000" opacity="1">20</text><text text-anchor="end" transform="translate(-7,166.63636363636363)" font-family="sans-serif" font-size="10px" fill="#000" opacity="1">25</text><text text-anchor="end" transform="translate(-7,139.36363636363637)" font-family="sans-serif" font-size="10px" fill="#000" opacity="1">30</text><text text-anchor="end" transform="translate(-7,112.0909090909091)" font-family="sans-serif" font-size="10px" fill="#000" opacity="1">35</text><text text-anchor="end" transform="translate(-7,84.81818181818181)" font-family="sans-serif" font-size="10px" fill="#000" opacity="1">40</text><text text-anchor="end" transform="translate(-7,57.54545454545453)" font-family="sans-serif" font-size="10px" fill="#000" opacity="1">45</text><text text-anchor="end" transform="translate(-7,30.27272727272728)" font-family="sans-serif" font-size="10px" fill="#000" opacity="1">50</text><text text-anchor="end" transform="translate(-7,3)" font-family="sans-serif" font-size="10px" fill="#000" opacity="1">55</text></g><g class="mark-rule role-axis-domain" pointer-events="none"><line transform="translate(0,300)" x2="0" y2="-300" stroke="#888" stroke-width="1" opacity="1"/></g><g class="mark-text role-axis-title" pointer-events="none"><text text-anchor="middle" transform="translate(-22.123046875,150) rotate(-90) translate(0,-2)" font-family="sans-serif" font-size="11px" font-weight="bold" fill="#000" opacity="1">Overnight stays per total population (%)</text></g></g><path class="foreground" aria-hidden="true" d="" pointer-events="none" display="none"/></g></g><g class="mark-symbol role-mark marks" role="graphics-object" aria-roledescription="symbol mark container"><path aria-label="Year: 2005; Overnight stays per total population (%): 2.7443; Country: Finland" role="graphics-symbol" aria-roledescription="point" transform="translate(12.5,285.0310909090909)" d="M2.739,0A2.739,2.739,0,1,1,-2.739,0A2.739,2.739,0,1,1,2.739,0" stroke="#4c78a8" stroke-width="2" opacity="0.7"/><path aria-label="Year: 2006; Overnight stays per total population (%): 2.6637; Country: Finland" role="graphics-symbol" aria-roledescription="point" transform="translate(37.5,285.4707272727273)" d="M2.739,0A2.739,2.739,0,1,1,-2.739,0A2.739,2.739,0,1,1,2.739,0" stroke="#4c78a8" stroke-width="2" opacity="0.7"/><path aria-label="Year: 2007; Overnight stays per total population (%): 2.8208; Country: Finland" role="graphics-symbol" aria-roledescription="point" transform="translate(62.5,284.6138181818182)" d="M2.739,0A2.739,2.739,0,1,1,-2.739,0A2.739,2.739,0,1,1,2.739,0" stroke="#4c78a8" stroke-width="2" opacity="0.7"/><path aria-label="Year: 2008; Overnight stays per total population (%): 2.4743; Country: Finland" role="graphics-symbol" aria-roledescription="point" transform="translate(87.5,286.5038181818182)" d="M2.739,0A2.739,2.739,0,1,1,-2.739,0A2.739,2.739,0,1,1,2.739,0" stroke="#4c78a8" stroke-width="2" opacity="0.7"/><path aria-label="Year: 2009; Overnight stays per total population (%): 2.4812; Country: Finland" role="graphics-symbol" aria-roledescription="point" transform="translate(112.5,286.4661818181818)" d="M2.739,0A2.739,2.739,0,1,1,-2.739,0A2.739,2.739,0,1,1,2.739,0" stroke="#4c78a8" stroke-width="2" opacity="0.7"/><path aria-label="Year: 2010; Overnight stays per total population (%): 2.8404; Country: Finland" role="graphics-symbol" aria-roledescription="point" transform="translate(137.5,284.5069090909091)" d="M2.739,0A2.739,2.739,0,1,1,-2.739,0A2.739,2.739,0,1,1,2.739,0" stroke="#4c78a8" stroke-width="2" opacity="0.7"/><path aria-label="Year: 2011; Overnight stays per total population (%): 3.3726; Country: Finland" role="graphics-symbol" aria-roledescription="point" transform="translate(162.5,281.604)" d="M2.739,0A2.739,2.739,0,1,1,-2.739,0A2.739,2.739,0,1,1,2.739,0" stroke="#4c78a8" stroke-width="2" opacity="0.7"/><path aria-label="Year: 2012; Overnight stays per total population (%): 3.9713; Country: Finland" role="graphics-symbol" aria-roledescription="point" transform="translate(187.5,278.3383636363636)" d="M2.739,0A2.739,2.739,0,1,1,-2.739,0A2.739,2.739,0,1,1,2.739,0" stroke="#4c78a8" stroke-width="2" opacity="0.7"/><path aria-label="Year: 2013; Overnight stays per total population (%): 3.7147; Country: Finland" role="graphics-symbol" aria-roledescription="point" transform="translate(212.5,279.738)" d="M2.739,0A2.739,2.739,0,1,1,-2.739,0A2.739,2.739,0,1,1,2.739,0" stroke="#4c78a8" stroke-width="2" opacity="0.7"/><path aria-label="Year: 2014; Overnight stays per total population (%): 3.5814; Country: Finland" role="graphics-symbol" aria-roledescription="point" transform="translate(237.5,280.4650909090909)" d="M2.739,0A2.739,2.739,0,1,1,-2.739,0A2.739,2.739,0,1,1,2.739,0" stroke="#4c78a8" stroke-width="2" opacity="0.7"/><path aria-label="Year: 2015; Overnight stays per total population (%): 3.4299; Country: Finland" role="graphics-symbol" aria-roledescription="point" transform="translate(262.5,281.29145454545454)" d="M2.739,0A2.739,2.739,0,1,1,-2.739,0A2.739,2.739,0,1,1,2.739,0" stroke="#4c78a8" stroke-width="2" opacity="0.7"/><path aria-label="Year: 2016; Overnight stays per total population (%): 3.4831; Country: Finland" role="graphics-symbol" aria-roledescription="point" transform="translate(287.5,281.00127272727275)" d="M2.739,0A2.739,2.739,0,1,1,-2.739,0A2.739,2.739,0,1,1,2.739,0" stroke="#4c78a8" stroke-width="2" opacity="0.7"/><path aria-label="Year: 2017; Overnight stays per total population (%): 3.78; Country: Finland" role="graphics-symbol" aria-roledescription="point" transform="translate(312.5,279.3818181818182)" d="M2.739,0A2.739,2.739,0,1,1,-2.739,0A2.739,2.739,0,1,1,2.739,0" stroke="#4c78a8" stroke-width="2" opacity="0.7"/><path aria-label="Year: 2018; Overnight stays per total population (%): 4.425; Country: Finland" role="graphics-symbol" aria-roledescription="point" transform="translate(337.5,275.8636363636364)" d="M2.739,0A2.739,2.739,0,1,1,-2.739,0A2.739,2.739,0,1,1,2.739,0" stroke="#4c78a8" stroke-width="2" opacity="0.7"/><path aria-label="Year: 2019; Overnight stays per total population (%): 3.854; Country: Finland" role="graphics-symbol" aria-roledescription="point" transform="translate(362.5,278.97818181818184)" d="M2.739,0A2.739,2.739,0,1,1,-2.739,0A2.739,2.739,0,1,1,2.739,0" stroke="#4c78a8" stroke-width="2" opacity="0.7"/><path aria-label="Year: 2020; Overnight stays per total population (%): 0.6443; Country: Finland" role="graphics-symbol" aria-roledescription="point" transform="translate(387.5,296.4856363636364)" d="M2.739,0A2.739,2.739,0,1,1,-2.739,0A2.739,2.739,0,1,1,2.739,0" stroke="#4c78a8" stroke-width="2" opacity="0.7"/><path aria-label="Year: 2021; Overnight stays per total population (%): 0.808; Country: Finland" role="graphics-symbol" aria-roledescription="point" transform="translate(412.5,295.5927272727273)" d="M2.739,0A2.739,2.739,0,1,1,-2.739,0A2.739,2.739,0,1,1,2.739,0" stroke="#4c78a8" stroke-width="2" opacity="0.7"/><path aria-label="Year: 2022; Overnight stays per total population (%): 3.1771; Country: Finland" role="graphics-symbol" aria-roledescription="point" transform="translate(437.5,282.6703636363636)" d="M2.739,0A2.739,2.739,0,1,1,-2.739,0A2.739,2.739,0,1,1,2.739,0" stroke="#4c78a8" stroke-width="2" opacity="0.7"/><path aria-label="Year: 2023; Overnight stays per total population (%): 3.598; Country: Finland" role="graphics-symbol" aria-roledescription="point" transform="translate(462.5,280.37454545454545)" d="M2.739,0A2.739,2.739,0,1,1,-2.739,0A2.739,2.739,0,1,1,2.739,0" stroke="#4c78a8" stroke-width="2" opacity="0.7"/><path aria-label="Year: 2024; Overnight stays per total population (%): 3.693; Country: Finland" role="graphics-symbol" aria-roledescription="point" transform="translate(487.5,279.85636363636365)" d="M2.739,0A2.739,2.739,0,1,1,-2.739,0A2.739,2.739,0,1,1,2.739,0" stroke="#4c78a8" stroke-width="2" opacity="0.7"/><path aria-label="Year: 2005; Overnight stays per total population (%): 30.8566; Country: Iceland" role="graphics-symbol" aria-roledescription="point" transform="translate(12.5,131.69127272727272)" d="M2.739,0A2.739,2.739,0,1,1,-2.739,0A2.739,2.739,0,1,1,2.739,0" stroke="#f58518" stroke-width="2" opacity="0.7"/><path aria-label="Year: 2006; Overnight stays per total population (%): 30.8604; Country: Iceland" role="graphics-symbol" aria-roledescription="point" transform="translate(37.5,131.67054545454545)" d="M2.739,0A2.739,2.739,0,1,1,-2.739,0A2.739,2.739,0,1,1,2.739,0" stroke="#f58518" stroke-width="2" opacity="0.7"/><path aria-label="Year: 2007; Overnight stays per total population (%): 32.9749; Country: Iceland" role="graphics-symbol" aria-roledescription="point" transform="translate(62.5,120.13690909090911)" d="M2.739,0A2.739,2.739,0,1,1,-2.739,0A2.739,2.739,0,1,1,2.739,0" stroke="#f58518" stroke-width="2" opacity="0.7"/><path aria-label="Year: 2008; Overnight stays per total population (%): 19.9931; Country: Iceland" role="graphics-symbol" aria-roledescription="point" transform="translate(87.5,190.9467272727273)" d="M2.739,0A2.739,2.739,0,1,1,-2.739,0A2.739,2.739,0,1,1,2.739,0" stroke="#f58518" stroke-width="2" opacity="0.7"/><path aria-label="Year: 2009; Overnight stays per total population (%): 7.9231; Country: Iceland" role="graphics-symbol" aria-roledescription="point" transform="translate(112.5,256.7830909090909)" d="M2.739,0A2.739,2.739,0,1,1,-2.739,0A2.739,2.739,0,1,1,2.739,0" stroke="#f58518" stroke-width="2" opacity="0.7"/><path aria-label="Year: 2010; Overnight stays per total population (%): 9.9647; Country: Iceland" role="graphics-symbol" aria-roledescription="point" transform="translate(137.5,245.6470909090909)" d="M2.739,0A2.739,2.739,0,1,1,-2.739,0A2.739,2.739,0,1,1,2.739,0" stroke="#f58518" stroke-width="2" opacity="0.7"/><path aria-label="Year: 2011; Overnight stays per total population (%): 12.0233; Country: Iceland" role="graphics-symbol" aria-roledescription="point" transform="translate(162.5,234.41836363636364)" d="M2.739,0A2.739,2.739,0,1,1,-2.739,0A2.739,2.739,0,1,1,2.739,0" stroke="#f58518" stroke-width="2" opacity="0.7"/><path aria-label="Year: 2012; Overnight stays per total population (%): 12.78; Country: Iceland" role="graphics-symbol" aria-roledescription="point" transform="translate(187.5,230.2909090909091)" d="M2.739,0A2.739,2.739,0,1,1,-2.739,0A2.739,2.739,0,1,1,2.739,0" stroke="#f58518" stroke-width="2" opacity="0.7"/><path aria-label="Year: 2013; Overnight stays per total population (%): 13.364; Country: Iceland" role="graphics-symbol" aria-roledescription="point" transform="translate(212.5,227.10545454545453)" d="M2.739,0A2.739,2.739,0,1,1,-2.739,0A2.739,2.739,0,1,1,2.739,0" stroke="#f58518" stroke-width="2" opacity="0.7"/><path aria-label="Year: 2014; Overnight stays per total population (%): 14.6522; Country: Iceland" role="graphics-symbol" aria-roledescription="point" transform="translate(237.5,220.0789090909091)" d="M2.739,0A2.739,2.739,0,1,1,-2.739,0A2.739,2.739,0,1,1,2.739,0" stroke="#f58518" stroke-width="2" opacity="0.7"/><path aria-label="Year: 2015; Overnight stays per total population (%): 15.0689; Country: Iceland" role="graphics-symbol" aria-roledescription="point" transform="translate(262.5,217.806)" d="M2.739,0A2.739,2.739,0,1,1,-2.739,0A2.739,2.739,0,1,1,2.739,0" stroke="#f58518" stroke-width="2" opacity="0.7"/><path aria-label="Year: 2016; Overnight stays per total population (%): 15.9276; Country: Iceland" role="graphics-symbol" aria-roledescription="point" transform="translate(287.5,213.12218181818184)" d="M2.739,0A2.739,2.739,0,1,1,-2.739,0A2.739,2.739,0,1,1,2.739,0" stroke="#f58518" stroke-width="2" opacity="0.7"/><path aria-label="Year: 2017; Overnight stays per total population (%): 19.7; Country: Iceland" role="graphics-symbol" aria-roledescription="point" transform="translate(312.5,192.54545454545456)" d="M2.739,0A2.739,2.739,0,1,1,-2.739,0A2.739,2.739,0,1,1,2.739,0" stroke="#f58518" stroke-width="2" opacity="0.7"/><path aria-label="Year: 2018; Overnight stays per total population (%): 19.7226; Country: Iceland" role="graphics-symbol" aria-roledescription="point" transform="translate(337.5,192.42218181818183)" d="M2.739,0A2.739,2.739,0,1,1,-2.739,0A2.739,2.739,0,1,1,2.739,0" stroke="#f58518" stroke-width="2" opacity="0.7"/><path aria-label="Year: 2019; Overnight stays per total population (%): 20.0905; Country: Iceland" role="graphics-symbol" aria-roledescription="point" transform="translate(362.5,190.41545454545457)" d="M2.739,0A2.739,2.739,0,1,1,-2.739,0A2.739,2.739,0,1,1,2.739,0" stroke="#f58518" stroke-width="2" opacity="0.7"/><path aria-label="Year: 2020; Overnight stays per total population (%): 4.9853; Country: Iceland" role="graphics-symbol" aria-roledescription="point" transform="translate(387.5,272.80745454545456)" d="M2.739,0A2.739,2.739,0,1,1,-2.739,0A2.739,2.739,0,1,1,2.739,0" stroke="#f58518" stroke-width="2" opacity="0.7"/><path aria-label="Year: 2021; Overnight stays per total population (%): 9.8345; Country: Iceland" role="graphics-symbol" aria-roledescription="point" transform="translate(412.5,246.35727272727271)" d="M2.739,0A2.739,2.739,0,1,1,-2.739,0A2.739,2.739,0,1,1,2.739,0" stroke="#f58518" stroke-width="2" opacity="0.7"/><path aria-label="Year: 2022; Overnight stays per total population (%): 26.3864; Country: Iceland" role="graphics-symbol" aria-roledescription="point" transform="translate(437.5,156.07418181818184)" d="M2.739,0A2.739,2.739,0,1,1,-2.739,0A2.739,2.739,0,1,1,2.739,0" stroke="#f58518" stroke-width="2" opacity="0.7"/><path aria-label="Year: 2023; Overnight stays per total population (%): 25.7037; Country: Iceland" role="graphics-symbol" aria-roledescription="point" transform="translate(462.5,159.79799999999997)" d="M2.739,0A2.739,2.739,0,1,1,-2.739,0A2.739,2.739,0,1,1,2.739,0" stroke="#f58518" stroke-width="2" opacity="0.7"/><path aria-label="Year: 2024; Overnight stays per total population (%): 24.574; Country: Iceland" role="graphics-symbol" aria-roledescription="point" transform="translate(487.5,165.95999999999998)" d="M2.739,0A2.739,2.739,0,1,1,-2.739,0A2.739,2.739,0,1,1,2.739,0" stroke="#f58518" stroke-width="2" opacity="0.7"/><path aria-label="Year: 2005; Overnight stays per total population (%): 47.5993; Country: Norway" role="graphics-symbol" aria-roledescription="point" transform="translate(12.5,40.36745454545454)" d="M2.739,0A2.739,2.739,0,1,1,-2.739,0A2.739,2.739,0,1,1,2.739,0" stroke="#e45756" stroke-width="2" opacity="0.7"/><path aria-label="Year: 2006; Overnight stays per total population (%): 49.0428; Country: Norway" role="graphics-symbol" aria-roledescription="point" transform="translate(37.5,32.49381818181817)" d="M2.739,0A2.739,2.739,0,1,1,-2.739,0A2.739,2.739,0,1,1,2.739,0" stroke="#e45756" stroke-width="2" opacity="0.7"/><path aria-label="Year: 2007; Overnight stays per total population (%): 52.5315; Country: Norway" role="graphics-symbol" aria-roledescription="point" transform="translate(62.5,13.46454545454544)" d="M2.739,0A2.739,2.739,0,1,1,-2.739,0A2.739,2.739,0,1,1,2.739,0" stroke="#e45756" stroke-width="2" opacity="0.7"/><path aria-label="Year: 2008; Overnight stays per total population (%): 48.4519; Country: Norway" role="graphics-symbol" aria-roledescription="point" transform="translate(87.5,35.71690909090909)" d="M2.739,0A2.739,2.739,0,1,1,-2.739,0A2.739,2.739,0,1,1,2.739,0" stroke="#e45756" stroke-width="2" opacity="0.7"/><path aria-label="Year: 2009; Overnight stays per total population (%): 43.8217; Country: Norway" role="graphics-symbol" aria-roledescription="point" transform="translate(112.5,60.972545454545454)" d="M2.739,0A2.739,2.739,0,1,1,-2.739,0A2.739,2.739,0,1,1,2.739,0" stroke="#e45756" stroke-width="2" opacity="0.7"/><path aria-label="Year: 2010; Overnight stays per total population (%): 46.2286; Country: Norway" role="graphics-symbol" aria-roledescription="point" transform="translate(137.5,47.84399999999999)" d="M2.739,0A2.739,2.739,0,1,1,-2.739,0A2.739,2.739,0,1,1,2.739,0" stroke="#e45756" stroke-width="2" opacity="0.7"/><path aria-label="Year: 2011; Overnight stays per total population (%): 48.8765; Country: Norway" role="graphics-symbol" aria-roledescription="point" transform="translate(162.5,33.4009090909091)" d="M2.739,0A2.739,2.739,0,1,1,-2.739,0A2.739,2.739,0,1,1,2.739,0" stroke="#e45756" stroke-width="2" opacity="0.7"/><path aria-label="Year: 2012; Overnight stays per total population (%): 49.0947; Country: Norway" role="graphics-symbol" aria-roledescription="point" transform="translate(187.5,32.210727272727254)" d="M2.739,0A2.739,2.739,0,1,1,-2.739,0A2.739,2.739,0,1,1,2.739,0" stroke="#e45756" stroke-width="2" opacity="0.7"/><path aria-label="Year: 2013; Overnight stays per total population (%): 48.7629; Country: Norway" role="graphics-symbol" aria-roledescription="point" transform="translate(212.5,34.02054545454545)" d="M2.739,0A2.739,2.739,0,1,1,-2.739,0A2.739,2.739,0,1,1,2.739,0" stroke="#e45756" stroke-width="2" opacity="0.7"/><path aria-label="Year: 2014; Overnight stays per total population (%): 49.2905; Country: Norway" role="graphics-symbol" aria-roledescription="point" transform="translate(237.5,31.142727272727257)" d="M2.739,0A2.739,2.739,0,1,1,-2.739,0A2.739,2.739,0,1,1,2.739,0" stroke="#e45756" stroke-width="2" opacity="0.7"/><path aria-label="Year: 2015; Overnight stays per total population (%): 51.0955; Country: Norway" role="graphics-symbol" aria-roledescription="point" transform="translate(262.5,21.29727272727273)" d="M2.739,0A2.739,2.739,0,1,1,-2.739,0A2.739,2.739,0,1,1,2.739,0" stroke="#e45756" stroke-width="2" opacity="0.7"/><path aria-label="Year: 2016; Overnight stays per total population (%): 48.8414; Country: Norway" role="graphics-symbol" aria-roledescription="point" transform="translate(287.5,33.59236363636363)" d="M2.739,0A2.739,2.739,0,1,1,-2.739,0A2.739,2.739,0,1,1,2.739,0" stroke="#e45756" stroke-width="2" opacity="0.7"/><path aria-label="Year: 2017; Overnight stays per total population (%): 46.2353; Country: Norway" role="graphics-symbol" aria-roledescription="point" transform="translate(312.5,47.80745454545452)" d="M2.739,0A2.739,2.739,0,1,1,-2.739,0A2.739,2.739,0,1,1,2.739,0" stroke="#e45756" stroke-width="2" opacity="0.7"/><path aria-label="Year: 2018; Overnight stays per total population (%): 44.3504; Country: Norway" role="graphics-symbol" aria-roledescription="point" transform="translate(337.5,58.08872727272726)" d="M2.739,0A2.739,2.739,0,1,1,-2.739,0A2.739,2.739,0,1,1,2.739,0" stroke="#e45756" stroke-width="2" opacity="0.7"/><path aria-label="Year: 2019; Overnight stays per total population (%): 43.9604; Country: Norway" role="graphics-symbol" aria-roledescription="point" transform="translate(362.5,60.216)" d="M2.739,0A2.739,2.739,0,1,1,-2.739,0A2.739,2.739,0,1,1,2.739,0" stroke="#e45756" stroke-width="2" opacity="0.7"/><path aria-label="Year: 2020; Overnight stays per total population (%): 12.8589; Country: Norway" role="graphics-symbol" aria-roledescription="point" transform="translate(387.5,229.86054545454547)" d="M2.739,0A2.739,2.739,0,1,1,-2.739,0A2.739,2.739,0,1,1,2.739,0" stroke="#e45756" stroke-width="2" opacity="0.7"/><path aria-label="Year: 2021; Overnight stays per total population (%): 7.8105; Country: Norway" role="graphics-symbol" aria-roledescription="point" transform="translate(412.5,257.3972727272727)" d="M2.739,0A2.739,2.739,0,1,1,-2.739,0A2.739,2.739,0,1,1,2.739,0" stroke="#e45756" stroke-width="2" opacity="0.7"/><path aria-label="Year: 2022; Overnight stays per total population (%): 41.6631; Country: Norway" role="graphics-symbol" aria-roledescription="point" transform="translate(437.5,72.74672727272727)" d="M2.739,0A2.739,2.739,0,1,1,-2.739,0A2.739,2.739,0,1,1,2.739,0" stroke="#e45756" stroke-width="2" opacity="0.7"/><path aria-label="Year: 2023; Overnight stays per total population (%): 32.923; Country: Norway" role="graphics-symbol" aria-roledescription="point" transform="translate(462.5,120.41999999999999)" d="M2.739,0A2.739,2.739,0,1,1,-2.739,0A2.739,2.739,0,1,1,2.739,0" stroke="#e45756" stroke-width="2" opacity="0.7"/><path aria-label="Year: 2024; Overnight stays per total population (%): 28.759; Country: Norway" role="graphics-symbol" aria-roledescription="point" transform="translate(487.5,143.13272727272727)" d="M2.739,0A2.739,2.739,0,1,1,-2.739,0A2.739,2.739,0,1,1,2.739,0" stroke="#e45756" stroke-width="2" opacity="0.7"/><path aria-label="Year: 2005; Overnight stays per total population (%): 22.2948; Country: Sweden" role="graphics-symbol" aria-roledescription="point" transform="translate(12.5,178.39200000000002)" d="M2.739,0A2.739,2.739,0,1,1,-2.739,0A2.739,2.739,0,1,1,2.739,0" stroke="#72b7b2" stroke-width="2" opacity="0.7"/><path aria-label="Year: 2006; Overnight stays per total population (%): 22.2364; Country: Sweden" role="graphics-symbol" aria-roledescription="point" transform="translate(37.5,178.71054545454544)" d="M2.739,0A2.739,2.739,0,1,1,-2.739,0A2.739,2.739,0,1,1,2.739,0" stroke="#72b7b2" stroke-width="2" opacity="0.7"/><path aria-label="Year: 2007; Overnight stays per total population (%): 21.3883; Country: Sweden" role="graphics-symbol" aria-roledescription="point" transform="translate(62.5,183.33654545454544)" d="M2.739,0A2.739,2.739,0,1,1,-2.739,0A2.739,2.739,0,1,1,2.739,0" stroke="#72b7b2" stroke-width="2" opacity="0.7"/><path aria-label="Year: 2008; Overnight stays per total population (%): 19.8545; Country: Sweden" role="graphics-symbol" aria-roledescription="point" transform="translate(87.5,191.70272727272726)" d="M2.739,0A2.739,2.739,0,1,1,-2.739,0A2.739,2.739,0,1,1,2.739,0" stroke="#72b7b2" stroke-width="2" opacity="0.7"/><path aria-label="Year: 2009; Overnight stays per total population (%): 15.2632; Country: Sweden" role="graphics-symbol" aria-roledescription="point" transform="translate(112.5,216.74618181818184)" d="M2.739,0A2.739,2.739,0,1,1,-2.739,0A2.739,2.739,0,1,1,2.739,0" stroke="#72b7b2" stroke-width="2" opacity="0.7"/><path aria-label="Year: 2010; Overnight stays per total population (%): 17.2257; Country: Sweden" role="graphics-symbol" aria-roledescription="point" transform="translate(137.5,206.04163636363634)" d="M2.739,0A2.739,2.739,0,1,1,-2.739,0A2.739,2.739,0,1,1,2.739,0" stroke="#72b7b2" stroke-width="2" opacity="0.7"/><path aria-label="Year: 2011; Overnight stays per total population (%): 18.9472; Country: Sweden" role="graphics-symbol" aria-roledescription="point" transform="translate(162.5,196.65163636363638)" d="M2.739,0A2.739,2.739,0,1,1,-2.739,0A2.739,2.739,0,1,1,2.739,0" stroke="#72b7b2" stroke-width="2" opacity="0.7"/><path aria-label="Year: 2012; Overnight stays per total population (%): 19.1354; Country: Sweden" role="graphics-symbol" aria-roledescription="point" transform="translate(187.5,195.62509090909091)" d="M2.739,0A2.739,2.739,0,1,1,-2.739,0A2.739,2.739,0,1,1,2.739,0" stroke="#72b7b2" stroke-width="2" opacity="0.7"/><path aria-label="Year: 2013; Overnight stays per total population (%): 19.918; Country: Sweden" role="graphics-symbol" aria-roledescription="point" transform="translate(212.5,191.35636363636362)" d="M2.739,0A2.739,2.739,0,1,1,-2.739,0A2.739,2.739,0,1,1,2.739,0" stroke="#72b7b2" stroke-width="2" opacity="0.7"/><path aria-label="Year: 2014; Overnight stays per total population (%): 19.8702; Country: Sweden" role="graphics-symbol" aria-roledescription="point" transform="translate(237.5,191.6170909090909)" d="M2.739,0A2.739,2.739,0,1,1,-2.739,0A2.739,2.739,0,1,1,2.739,0" stroke="#72b7b2" stroke-width="2" opacity="0.7"/><path aria-label="Year: 2015; Overnight stays per total population (%): 19.3872; Country: Sweden" role="graphics-symbol" aria-roledescription="point" transform="translate(262.5,194.25163636363638)" d="M2.739,0A2.739,2.739,0,1,1,-2.739,0A2.739,2.739,0,1,1,2.739,0" stroke="#72b7b2" stroke-width="2" opacity="0.7"/><path aria-label="Year: 2016; Overnight stays per total population (%): 19.0635; Country: Sweden" role="graphics-symbol" aria-roledescription="point" transform="translate(287.5,196.01727272727274)" d="M2.739,0A2.739,2.739,0,1,1,-2.739,0A2.739,2.739,0,1,1,2.739,0" stroke="#72b7b2" stroke-width="2" opacity="0.7"/><path aria-label="Year: 2017; Overnight stays per total population (%): 18.9341; Country: Sweden" role="graphics-symbol" aria-roledescription="point" transform="translate(312.5,196.72309090909093)" d="M2.739,0A2.739,2.739,0,1,1,-2.739,0A2.739,2.739,0,1,1,2.739,0" stroke="#72b7b2" stroke-width="2" opacity="0.7"/><path aria-label="Year: 2018; Overnight stays per total population (%): 18.484; Country: Sweden" role="graphics-symbol" aria-roledescription="point" transform="translate(337.5,199.1781818181818)" d="M2.739,0A2.739,2.739,0,1,1,-2.739,0A2.739,2.739,0,1,1,2.739,0" stroke="#72b7b2" stroke-width="2" opacity="0.7"/><path aria-label="Year: 2019; Overnight stays per total population (%): 17.2658; Country: Sweden" role="graphics-symbol" aria-roledescription="point" transform="translate(362.5,205.8229090909091)" d="M2.739,0A2.739,2.739,0,1,1,-2.739,0A2.739,2.739,0,1,1,2.739,0" stroke="#72b7b2" stroke-width="2" opacity="0.7"/><path aria-label="Year: 2020; Overnight stays per total population (%): 4.1423; Country: Sweden" role="graphics-symbol" aria-roledescription="point" transform="translate(387.5,277.4056363636364)" d="M2.739,0A2.739,2.739,0,1,1,-2.739,0A2.739,2.739,0,1,1,2.739,0" stroke="#72b7b2" stroke-width="2" opacity="0.7"/><path aria-label="Year: 2021; Overnight stays per total population (%): 6.149; Country: Sweden" role="graphics-symbol" aria-roledescription="point" transform="translate(412.5,266.46)" d="M2.739,0A2.739,2.739,0,1,1,-2.739,0A2.739,2.739,0,1,1,2.739,0" stroke="#72b7b2" stroke-width="2" opacity="0.7"/><path aria-label="Year: 2022; Overnight stays per total population (%): 16.7008; Country: Sweden" role="graphics-symbol" aria-roledescription="point" transform="translate(437.5,208.90472727272729)" d="M2.739,0A2.739,2.739,0,1,1,-2.739,0A2.739,2.739,0,1,1,2.739,0" stroke="#72b7b2" stroke-width="2" opacity="0.7"/><path aria-label="Year: 2023; Overnight stays per total population (%): 14.1056; Country: Sweden" role="graphics-symbol" aria-roledescription="point" transform="translate(462.5,223.06036363636363)" d="M2.739,0A2.739,2.739,0,1,1,-2.739,0A2.739,2.739,0,1,1,2.739,0" stroke="#72b7b2" stroke-width="2" opacity="0.7"/><path aria-label="Year: 2024; Overnight stays per total population (%): 13.5106; Country: Sweden" role="graphics-symbol" aria-roledescription="point" transform="translate(487.5,226.30581818181818)" d="M2.739,0A2.739,2.739,0,1,1,-2.739,0A2.739,2.739,0,1,1,2.739,0" stroke="#72b7b2" stroke-width="2" opacity="0.7"/></g><g class="mark-group role-legend" role="graphics-symbol" aria-roledescription="legend" aria-label="Symbol legend titled 'Country' for stroke color with 4 values: Finland, Iceland, Norway, Sweden"><g transform="translate(518,0)"><path class="background" aria-hidden="true" d="M0,0h53v77h-53Z" pointer-events="none"/><g><g class="mark-group role-legend-entry"><g transform="translate(0,16)"><path class="background" aria-hidden="true" d="M0,0h0v0h0Z" pointer-events="none"/><g><g class="mark-group role-scope" role="graphics-object" aria-roledescription="group mark container"><g transform="translate(0,0)"><path class="background" aria-hidden="true" d="M0,0h52.1376953125v12.5h-52.1376953125Z" pointer-events="none" opacity="1"/><g><g class="mark-symbol role-legend-symbol" pointer-events="none"><path transform="translate(6,6)" d="M5,0A5,5,0,1,1,-5,0A5,5,0,1,1,5,0" stroke="#4c78a8" stroke-width="1.5" opacity="0.7"/></g><g class="mark-text role-legend-label" pointer-events="none"><text text-anchor="start" transform="translate(16,9)" font-family="sans-serif" font-size="10px" fill="#000" opacity="1">Finland</text></g></g><path class="foreground" aria-hidden="true" d="" pointer-events="none" display="none"/></g><g transform="translate(0,16)"><path class="background" aria-hidden="true" d="M0,0h52.1376953125v12.5h-52.1376953125Z" pointer-events="none" opacity="1"/><g><g class="mark-symbol role-legend-symbol" pointer-events="none"><path transform="translate(6,6)" d="M5,0A5,5,0,1,1,-5,0A5,5,0,1,1,5,0" stroke="#f58518" stroke-width="1.5" opacity="0.7"/></g><g class="mark-text role-legend-label" pointer-events="none"><text text-anchor="start" transform="translate(16,9)" font-family="sans-serif" font-size="10px" fill="#000" opacity="1">Iceland</text></g></g><path class="foreground" aria-hidden="true" d="" pointer-events="none" display="none"/></g><g transform="translate(0,32)"><path class="background" aria-hidden="true" d="M0,0h52.1376953125v12.5h-52.1376953125Z" pointer-events="none" opacity="1"/><g><g class="mark-symbol role-legend-symbol" pointer-events="none"><path transform="translate(6,6)" d="M5,0A5,5,0,1,1,-5,0A5,5,0,1,1,5,0" stroke="#e45756" stroke-width="1.5" opacity="0.7"/></g><g class="mark-text role-legend-label" pointer-events="none"><text text-anchor="start" transform="translate(16,9)" font-family="sans-serif" font-size="10px" fill="#000" opacity="1">Norway</text></g></g><path class="foreground" aria-hidden="true" d="" pointer-events="none" display="none"/></g><g transform="translate(0,48)"><path class="background" aria-hidden="true" d="M0,0h52.1376953125v12.5h-52.1376953125Z" pointer-events="none" opacity="1"/><g><g class="mark-symbol role-legend-symbol" pointer-events="none"><path transform="translate(6,6)" d="M5,0A5,5,0,1,1,-5,0A5,5,0,1,1,5,0" stroke="#72b7b2" stroke-width="1.5" opacity="0.7"/></g><g class="mark-text role-legend-label" pointer-events="none"><text text-anchor="start" transform="translate(16,9)" font-family="sans-serif" font-size="10px" fill="#000" opacity="1">Sweden</text></g></g><path class="foreground" aria-hidden="true" d="" pointer-events="none" display="none"/></g></g></g><path class="foreground" aria-hidden="true" d="" pointer-events="none" display="none"/></g></g><g class="mark-text role-legend-title" pointer-events="none"><text text-anchor="start" transform="translate(0,9)" font-family="sans-serif" font-size="11px" font-weight="bold" fill="#000" opacity="1">Country</text></g></g><path class="foreground" aria-hidden="true" d="" pointer-events="none" display="none"/></g></g><g class="mark-group role-title"><g transform="translate(250,-22)"><path class="background" aria-hidden="true" d="M0,0h0v0h0Z" pointer-events="none"/><g><g class="mark-text role-title-text" role="graphics-symbol" aria-roledescription="title" aria-label="Title text 'Nordics'" pointer-events="none"><text text-anchor="middle" transform="translate(0,10)" font-family="sans-serif" font-size="13px" font-weight="bold" fill="#000" opacity="1">Nordics</text></g></g><path class="foreground" aria-hidden="true" d="" pointer-events="none" display="none"/></g></g></g><path class="foreground" aria-hidden="true" d="" display="none"/></g></g></g></svg>