<svg xmlns="http://www.w3.org/2000/svg" xmlns:xlink="http://www.w3.org/1999/xlink" version="1.1" class="marks" width="652" height="377" viewBox="0 0 652 377"><rect width="652" height="377" fill="white"/><g fill="none" stroke-miterlimit="10" transform="translate(41,27)"><g class="mark-group role-frame root" role="graphics-object" aria-roledescription="group mark container"><g transform="translate(0,0)"><path class="background" aria-hidden="true" d="M0.5,0.5h500v300h-500Z" stroke="#ddd"/><g><g class="mark-group role-axis" aria-hidden="true"><g transform="translate(0.5,0.5)"><path class="background" aria-hidden="true" d="M0,0h0v0h0Z" pointer-events="none"/><g><g class="mark-rule role-axis-grid" pointer-events="none"><line transform="translate(0,279)" x2="500" y2="0" stroke="#ddd" stroke-width="1" opacity="1"/><line transform="translate(0,242)" x2="500" y2="0" stroke="#ddd" stroke-width="1" opacity="1"/><line transform="translate(0,204)" x2="500" y2="0" stroke="#ddd" stroke-width="1" opacity="1"/><line transform="translate(0,167)" x2="500" y2="0" stroke="#ddd" stroke-width="1" opacity="1"/><line transform="translate(0,130)" x2="500" y2="0" stroke="#ddd" stroke-width="1" opacity="1"/><line transform="translate(0,93)" x2="500" y2="0" stroke="#ddd" stroke-width="1" opacity="1"/><line transform="translate(0,55)" x2="500" y2="0" stroke="#ddd" stroke-width="1" opacity="1"/><line transform="translate(0,18)" x2="500" y2="0" stroke="#ddd" stroke-width="1" opacity="1"/></g></g><path class="foreground" aria-hidden="true" d="" pointer-events="none" display="none"/></g></g><g class="mark-group role-axis" role="graphics-symbol" aria-roledescription="axis" aria-label="X-axis titled 'Year' for a discrete scale with 9 values: 2016, 2017, 2018, 2019, 2020, ending with 2024"><g transform="translate(0.5,300.5)"><path class="background" aria-hidden="true" d="M0,0h0v0h0Z" pointer-events="none"/><g><g class="mark-rule role-axis-tick" pointer-events="none"><line transform="translate(28,0)" x2="0" y2="5" stroke="#888" stroke-width="1" opacity="1"/><line transform="translate(83,0)" x2="0" y2="5" stroke="#888" stroke-width="1" opacity="1"/><line transform="translate(139,0)" x2="0" y2="5" stroke="#888" stroke-width="1" opacity="1"/><line transform="translate(194,0)" x2="0" y2="5" stroke="#888" stroke-width="1" opacity="1"/><line transform="translate(250,0)" x2="0" y2="5" stroke="#888" stroke-width="1" opacity="1"/><line transform="translate(306,0)" x2="0" y2="5" stroke="#888" stroke-width="1" opacity="1"/><line transform="translate(361,0)" x2="0" y2="5" stroke="#888" stroke-width="1" opacity="1"/><line transform="translate(417,0)" x2="0" y2="5" stroke="#888" stroke-width="1" opacity="1"/><line transform="translate(472,0)" x2="0" y2="5" stroke="#888" stroke-width="1" opacity="1"/></g><g class="mark-text role-axis-label" pointer-events="none"><text text-anchor="end" transform="translate(27.77777777777777,7) rotate(270) translate(0,3)" font-family="sans-serif" font-size="10px" fill="#000" opacity="1">2016</text><text text-anchor="end" transform="translate(83.33333333333333,7) rotate(270) translate(0,3)" font-family="sans-serif" font-size="10px" fill="#000" opacity="1">2017</text><text text-anchor="end" transform="translate(138.88888888888889,7) rotate(270) translate(0,3)" font-family="sans-serif" font-size="10px" fill="#000" opacity="1">2018</text><text text-anchor="end" transform="translate(194.44444444444446,7) rotate(270) translate(0,3)" font-family="sans-serif" font-size="10px" fill="#000" opacity="1">2019</text><text text-anchor="end" transform="translate(250,7) rotate(270) translate(0,3)" font-family="sans-serif" font-size="10px" fill="#000" opacity="1">2020</text><text text-anchor="end" transform="translate(305.55555555555554,7) rotate(270) translate(0,3)" font-family="sans-serif" font-size="10px" fill="#000" opacity="1">2021</text><text text-anchor="end" transform="translate(361.11111111111114,7) rotate(270) translate(0,3)" font-family="sans-serif" font-size="10px" fill="#000" opacity="1">2022</text><text text-anchor="end" transform="translate(416.6666666666667,7) rotate(270) translate(0,3)" font-family="sans-serif" font-size="10px" fill="#000" opacity="1">2023</text><text text-anchor="end" transform="translate(472.22222222222223,7) rotate(270) translate(0,3)" font-family="sans-serif" font-size="10px" fill="#000" opacity="1">2024</text></g><g class="mark-rule role-axis-domain" pointer-events="none"><line transform="translate(0,0)" x2="500" y2="0" stroke="#888" stroke-width="1" opacity="1"/></g><g class="mark-text role-axis-title" pointer-events="none"><text text-anchor="middle" transform="translate(250,42.24609375)" font-family="sans-serif" font-size="11px" font-weight="bold" fill="#000" opacity="1">Year</text></g></g><path class="foreground" aria-hidden="true" d="" pointer-events="none" display="none"/></g></g><g class="mark-group role-axis" role="graphics-symbol" aria-roledescription="axis" aria-label="Y-axis titled 'Overnight stays per total population (%)' for a linear scale with values from 0 to 4"><g transform="translate(0.5,0.5)"><path class="background" aria-hidden="true" d="M0,0h0v0h0Z" pointer-events="none"/><g><g class="mark-rule role-axis-tick" pointer-events="none"><line transform="translate(0,279)" x2="-5" y2="0" stroke="#888" stroke-width="1" opacity="1"/><line transform="translate(0,242)" x2="-5" y2="0" stroke="#888" stroke-width="1" opacity="1"/><line transform="translate(0,204)" x2="-5" y2="0" stroke="#888" stroke-width="1" opacity="1"/><line transform="translate(0,167)" x2="-5" y2="0" stroke="#888" stroke-width="1" opacity="1"/><line transform="translate(0,130)" x2="-5" y2="0" stroke="#888" stroke-width="1" opacity="1"/><line transform="translate(0,93)" x2="-5" y2="0" stroke="#888" stroke-width="1" opacity="1"/><line transform="translate(0,55)" x2="-5" y2="0" stroke="#888" stroke-width="1" opacity="1"/><line transform="translate(0,18)" x2="-5" y2="0" stroke="#888" stroke-width="1" opacity="1"/></g><g class="mark-text role-axis-label" pointer-events="none"><text text-anchor="end" transform="translate(-7,281.9200139011708)" font-family="sans-serif" font-size="10px" fill="#000" opacity="1">0.5</text><text text-anchor="end" transform="translate(-7,244.675582752226)" font-family="sans-serif" font-size="10px" fill="#000" opacity="1">1.0</text><text text-anchor="end" transform="translate(-7,207.43115160328114)" font-family="sans-serif" font-size="10px" fill="#000" opacity="1">1.5</text><text text-anchor="end" transform="translate(-7,170.18672045433627)" font-family="sans-serif" font-size="10px" fill="#000" opacity="1">2.0</text><text text-anchor="end" transform="translate(-7,132.94228930539143)" font-family="sans-serif" font-size="10px" fill="#000" opacity="1">2.5</text><text text-anchor="end" transform="translate(-7,95.69785815644657)" font-family="sans-serif" font-size="10px" fill="#000" opacity="1">3.0</text><text text-anchor="end" transform="translate(-7,58.45342700750173)" font-family="sans-serif" font-size="10px" fill="#000" opacity="1">3.5</text><text text-anchor="end" transform="translate(-7,21.208995858556865)" font-family="sans-serif" font-size="10px" fill="#000" opacity="1">4.0</text></g><g class="mark-rule role-axis-domain" pointer-events="none"><line transform="translate(0,300)" x2="0" y2="-300" stroke="#888" stroke-width="1" opacity="1"/></g><g class="mark-text role-axis-title" pointer-events="none"><text text-anchor="middle" transform="translate(-24.9013671875,150) rotate(-90) translate(0,-2)" font-family="sans-serif" font-size="11px" font-weight="bold" fill="#000" opacity="1">Overnight stays per total population (%)</text></g></g><path class="foreground" aria-hidden="true" d="" pointer-events="none" display="none"/></g></g><g class="mark-rect role-mark select_interval_brush_bg" clip-path="url(#clip1)" role="graphics-symbol" aria-roledescription="rect mark container"><path d="M0,0h0v0h0Z" fill="#669EFF" fill-opacity="0.07"/></g><g class="mark-symbol role-mark marks" clip-path="url(#clip2)" role="graphics-object" aria-roledescription="symbol mark container"><path aria-label="Year: 2016; Overnight stays per total population (%): 0.74; Country: Austria" role="graphics-symbol" aria-roledescription="point" transform="translate(27.77777777777777,261.0426869496773)" d="M2.739,0A2.739,2.739,0,1,1,-2.739,0A2.739,2.739,0,1,1,2.739,0" stroke="#4c78a8" stroke-width="2" opacity="0.2"/><path aria-label="Year: 2017; Overnight stays per total population (%): 0.93; Country: Austria" role="graphics-symbol" aria-roledescription="point" transform="translate(83.33333333333333,246.88980311307824)" d="M2.739,0A2.739,2.739,0,1,1,-2.739,0A2.739,2.739,0,1,1,2.739,0" stroke="#4c78a8" stroke-width="2" opacity="0.2"/><path aria-label="Year: 2018; Overnight stays per total population (%): 1.05; Country: Austria" role="graphics-symbol" aria-roledescription="point" transform="translate(138.88888888888889,237.95113963733147)" d="M2.739,0A2.739,2.739,0,1,1,-2.739,0A2.739,2.739,0,1,1,2.739,0" stroke="#4c78a8" stroke-width="2" opacity="0.2"/><path aria-label="Year: 2019; Overnight stays per total population (%): 1.09; Country: Austria" role="graphics-symbol" aria-roledescription="point" transform="translate(194.44444444444446,234.9715851454159)" d="M2.739,0A2.739,2.739,0,1,1,-2.739,0A2.739,2.739,0,1,1,2.739,0" stroke="#4c78a8" stroke-width="2" opacity="0.2"/><path aria-label="Year: 2020; Overnight stays per total population (%): 0.3; Country: Austria" role="graphics-symbol" aria-roledescription="point" transform="translate(250,293.81778636074876)" d="M2.739,0A2.739,2.739,0,1,1,-2.739,0A2.739,2.739,0,1,1,2.739,0" stroke="#4c78a8" stroke-width="2" opacity="0.2"/><path aria-label="Year: 2021; Overnight stays per total population (%): 0.56; Country: Austria" role="graphics-symbol" aria-roledescription="point" transform="translate(305.55555555555554,274.4506821632975)" d="M2.739,0A2.739,2.739,0,1,1,-2.739,0A2.739,2.739,0,1,1,2.739,0" stroke="#4c78a8" stroke-width="2" opacity="0.2"/><path aria-label="Year: 2022; Overnight stays per total population (%): 1.18; Country: Austria" role="graphics-symbol" aria-roledescription="point" transform="translate(361.11111111111114,228.26758753860585)" d="M2.739,0A2.739,2.739,0,1,1,-2.739,0A2.739,2.739,0,1,1,2.739,0" stroke="#4c78a8" stroke-width="2" opacity="0.2"/><path aria-label="Year: 2023; Overnight stays per total population (%): 1.64; Country: Austria" role="graphics-symbol" aria-roledescription="point" transform="translate(416.6666666666667,194.00271088157658)" d="M2.739,0A2.739,2.739,0,1,1,-2.739,0A2.739,2.739,0,1,1,2.739,0" stroke="#4c78a8" stroke-width="2" opacity="0.2"/><path aria-label="Year: 2024; Overnight stays per total population (%): 1.88; Country: Austria" role="graphics-symbol" aria-roledescription="point" transform="translate(472.22222222222223,176.12538393008305)" d="M2.739,0A2.739,2.739,0,1,1,-2.739,0A2.739,2.739,0,1,1,2.739,0" stroke="#4c78a8" stroke-width="2" opacity="0.2"/><path aria-label="Year: 2016; Overnight stays per total population (%): 1.35; Country: Belgium" role="graphics-symbol" aria-roledescription="point" transform="translate(27.77777777777777,215.6044809479646)" d="M2.739,0A2.739,2.739,0,1,1,-2.739,0A2.739,2.739,0,1,1,2.739,0" stroke="#f58518" stroke-width="2" opacity="0.2"/><path aria-label="Year: 2017; Overnight stays per total population (%): 1.43; Country: Belgium" role="graphics-symbol" aria-roledescription="point" transform="translate(83.33333333333333,209.64537196413343)" d="M2.739,0A2.739,2.739,0,1,1,-2.739,0A2.739,2.739,0,1,1,2.739,0" stroke="#f58518" stroke-width="2" opacity="0.2"/><path aria-label="Year: 2018; Overnight stays per total population (%): 1.66; Country: Belgium" role="graphics-symbol" aria-roledescription="point" transform="translate(138.88888888888889,192.51293363561877)" d="M2.739,0A2.739,2.739,0,1,1,-2.739,0A2.739,2.739,0,1,1,2.739,0" stroke="#f58518" stroke-width="2" opacity="0.2"/><path aria-label="Year: 2019; Overnight stays per total population (%): 1.77; Country: Belgium" role="graphics-symbol" aria-roledescription="point" transform="translate(194.44444444444446,184.3191587828509)" d="M2.739,0A2.739,2.739,0,1,1,-2.739,0A2.739,2.739,0,1,1,2.739,0" stroke="#f58518" stroke-width="2" opacity="0.2"/><path aria-label="Year: 2020; Overnight stays per total population (%): 0.43; Country: Belgium" role="graphics-symbol" aria-roledescription="point" transform="translate(250,284.13423426202314)" d="M2.739,0A2.739,2.739,0,1,1,-2.739,0A2.739,2.739,0,1,1,2.739,0" stroke="#f58518" stroke-width="2" opacity="0.2"/><path aria-label="Year: 2021; Overnight stays per total population (%): 0.99; Country: Belgium" role="graphics-symbol" aria-roledescription="point" transform="translate(305.55555555555554,242.42047137520487)" d="M2.739,0A2.739,2.739,0,1,1,-2.739,0A2.739,2.739,0,1,1,2.739,0" stroke="#f58518" stroke-width="2" opacity="0.2"/><path aria-label="Year: 2022; Overnight stays per total population (%): 2.15; Country: Belgium" role="graphics-symbol" aria-roledescription="point" transform="translate(361.11111111111114,156.01339110965282)" d="M2.739,0A2.739,2.739,0,1,1,-2.739,0A2.739,2.739,0,1,1,2.739,0" stroke="#f58518" stroke-width="2" opacity="0.2"/><path aria-label="Year: 2023; Overnight stays per total population (%): 2.42; Country: Belgium" role="graphics-symbol" aria-roledescription="point" transform="translate(416.6666666666667,135.90139828922258)" d="M2.739,0A2.739,2.739,0,1,1,-2.739,0A2.739,2.739,0,1,1,2.739,0" stroke="#f58518" stroke-width="2" opacity="0.2"/><path aria-label="Year: 2024; Overnight stays per total population (%): 2.24; Country: Belgium" role="graphics-symbol" aria-roledescription="point" transform="translate(472.22222222222223,149.30939350284274)" d="M2.739,0A2.739,2.739,0,1,1,-2.739,0A2.739,2.739,0,1,1,2.739,0" stroke="#f58518" stroke-width="2" opacity="0.2"/><path aria-label="Year: 2016; Overnight stays per total population (%): 2.8; Country: Switzerland" role="graphics-symbol" aria-roledescription="point" transform="translate(27.77777777777777,107.59563061602454)" d="M2.739,0A2.739,2.739,0,1,1,-2.739,0A2.739,2.739,0,1,1,2.739,0" stroke="#54a24b" stroke-width="2" opacity="0.2"/><path aria-label="Year: 2017; Overnight stays per total population (%): 2.94; Country: Switzerland" role="graphics-symbol" aria-roledescription="point" transform="translate(83.33333333333333,97.16718989431997)" d="M2.739,0A2.739,2.739,0,1,1,-2.739,0A2.739,2.739,0,1,1,2.739,0" stroke="#54a24b" stroke-width="2" opacity="0.2"/><path aria-label="Year: 2018; Overnight stays per total population (%): 3.36; Country: Switzerland" role="graphics-symbol" aria-roledescription="point" transform="translate(138.88888888888889,65.8818677292063)" d="M2.739,0A2.739,2.739,0,1,1,-2.739,0A2.739,2.739,0,1,1,2.739,0" stroke="#54a24b" stroke-width="2" opacity="0.2"/><path aria-label="Year: 2019; Overnight stays per total population (%): 3.47; Country: Switzerland" role="graphics-symbol" aria-roledescription="point" transform="translate(194.44444444444446,57.688092876438404)" d="M2.739,0A2.739,2.739,0,1,1,-2.739,0A2.739,2.739,0,1,1,2.739,0" stroke="#54a24b" stroke-width="2" opacity="0.2"/><path aria-label="Year: 2020; Overnight stays per total population (%): 0.92; Country: Switzerland" role="graphics-symbol" aria-roledescription="point" transform="translate(250,247.63469173605716)" d="M2.739,0A2.739,2.739,0,1,1,-2.739,0A2.739,2.739,0,1,1,2.739,0" stroke="#54a24b" stroke-width="2" opacity="0.2"/><path aria-label="Year: 2021; Overnight stays per total population (%): 1.6; Country: Switzerland" role="graphics-symbol" aria-roledescription="point" transform="translate(305.55555555555554,196.98226537349214)" d="M2.739,0A2.739,2.739,0,1,1,-2.739,0A2.739,2.739,0,1,1,2.739,0" stroke="#54a24b" stroke-width="2" opacity="0.2"/><path aria-label="Year: 2022; Overnight stays per total population (%): 3.55; Country: Switzerland" role="graphics-symbol" aria-roledescription="point" transform="translate(361.11111111111114,51.72898389260724)" d="M2.739,0A2.739,2.739,0,1,1,-2.739,0A2.739,2.739,0,1,1,2.739,0" stroke="#54a24b" stroke-width="2" opacity="0.2"/><path aria-label="Year: 2023; Overnight stays per total population (%): 4.14; Country: Switzerland" role="graphics-symbol" aria-roledescription="point" transform="translate(416.6666666666667,7.78055513685233)" d="M2.739,0A2.739,2.739,0,1,1,-2.739,0A2.739,2.739,0,1,1,2.739,0" stroke="#54a24b" stroke-width="2" opacity="0.2"/><path aria-label="Year: 2024; Overnight stays per total population (%): 4.27; Country: Switzerland" role="graphics-symbol" aria-roledescription="point" transform="translate(472.22222222222223,-1.9029969618733267)" d="M2.739,0A2.739,2.739,0,1,1,-2.739,0A2.739,2.739,0,1,1,2.739,0" stroke="#54a24b" stroke-width="2" opacity="0.2"/><path aria-label="Year: 2016; Overnight stays per total population (%): 0.37; Country: France" role="graphics-symbol" aria-roledescription="point" transform="translate(27.77777777777777,288.6035659998965)" d="M2.739,0A2.739,2.739,0,1,1,-2.739,0A2.739,2.739,0,1,1,2.739,0" stroke="#e45756" stroke-width="2" opacity="0.2"/><path aria-label="Year: 2017; Overnight stays per total population (%): 0.4; Country: France" role="graphics-symbol" aria-roledescription="point" transform="translate(83.33333333333333,286.3689001309598)" d="M2.739,0A2.739,2.739,0,1,1,-2.739,0A2.739,2.739,0,1,1,2.739,0" stroke="#e45756" stroke-width="2" opacity="0.2"/><path aria-label="Year: 2018; Overnight stays per total population (%): 0.46; Country: France" role="graphics-symbol" aria-roledescription="point" transform="translate(138.88888888888889,281.89956839308644)" d="M2.739,0A2.739,2.739,0,1,1,-2.739,0A2.739,2.739,0,1,1,2.739,0" stroke="#e45756" stroke-width="2" opacity="0.2"/><path aria-label="Year: 2019; Overnight stays per total population (%): 0.53; Country: France" role="graphics-symbol" aria-roledescription="point" transform="translate(194.44444444444446,276.6853480322341)" d="M2.739,0A2.739,2.739,0,1,1,-2.739,0A2.739,2.739,0,1,1,2.739,0" stroke="#e45756" stroke-width="2" opacity="0.2"/><path aria-label="Year: 2020; Overnight stays per total population (%): 0.13; Country: France" role="graphics-symbol" aria-roledescription="point" transform="translate(250,306.48089295139005)" d="M2.739,0A2.739,2.739,0,1,1,-2.739,0A2.739,2.739,0,1,1,2.739,0" stroke="#e45756" stroke-width="2" opacity="0.2"/><path aria-label="Year: 2021; Overnight stays per total population (%): 0.24; Country: France" role="graphics-symbol" aria-roledescription="point" transform="translate(305.55555555555554,298.28711809862216)" d="M2.739,0A2.739,2.739,0,1,1,-2.739,0A2.739,2.739,0,1,1,2.739,0" stroke="#e45756" stroke-width="2" opacity="0.2"/><path aria-label="Year: 2022; Overnight stays per total population (%): 0.55; Country: France" role="graphics-symbol" aria-roledescription="point" transform="translate(361.11111111111114,275.19557078627633)" d="M2.739,0A2.739,2.739,0,1,1,-2.739,0A2.739,2.739,0,1,1,2.739,0" stroke="#e45756" stroke-width="2" opacity="0.2"/><path aria-label="Year: 2023; Overnight stays per total population (%): 0.69; Country: France" role="graphics-symbol" aria-roledescription="point" transform="translate(416.6666666666667,264.7671300645718)" d="M2.739,0A2.739,2.739,0,1,1,-2.739,0A2.739,2.739,0,1,1,2.739,0" stroke="#e45756" stroke-width="2" opacity="0.2"/><path aria-label="Year: 2024; Overnight stays per total population (%): 0.73; Country: France" role="graphics-symbol" aria-roledescription="point" transform="translate(472.22222222222223,261.7875755726562)" d="M2.739,0A2.739,2.739,0,1,1,-2.739,0A2.739,2.739,0,1,1,2.739,0" stroke="#e45756" stroke-width="2" opacity="0.2"/><path aria-label="Year: 2016; Overnight stays per total population (%): 1.38; Country: United Kingdom" role="graphics-symbol" aria-roledescription="point" transform="translate(27.77777777777777,213.3698150790279)" d="M2.739,0A2.739,2.739,0,1,1,-2.739,0A2.739,2.739,0,1,1,2.739,0" stroke="#eeca3b" stroke-width="2" opacity="1"/><path aria-label="Year: 2017; Overnight stays per total population (%): 1.36; Country: United Kingdom" role="graphics-symbol" aria-roledescription="point" transform="translate(83.33333333333333,214.8595923249857)" d="M2.739,0A2.739,2.739,0,1,1,-2.739,0A2.739,2.739,0,1,1,2.739,0" stroke="#eeca3b" stroke-width="2" opacity="1"/><path aria-label="Year: 2018; Overnight stays per total population (%): 1.34; Country: United Kingdom" role="graphics-symbol" aria-roledescription="point" transform="translate(138.88888888888889,216.34936957094345)" d="M2.739,0A2.739,2.739,0,1,1,-2.739,0A2.739,2.739,0,1,1,2.739,0" stroke="#eeca3b" stroke-width="2" opacity="1"/><path aria-label="Year: 2019; Overnight stays per total population (%): 1.37; Country: United Kingdom" role="graphics-symbol" aria-roledescription="point" transform="translate(194.44444444444446,214.11470370200678)" d="M2.739,0A2.739,2.739,0,1,1,-2.739,0A2.739,2.739,0,1,1,2.739,0" stroke="#eeca3b" stroke-width="2" opacity="1"/><path aria-label="Year: 2020; Overnight stays per total population (%): 0.38; Country: United Kingdom" role="graphics-symbol" aria-roledescription="point" transform="translate(250,287.8586773769176)" d="M2.739,0A2.739,2.739,0,1,1,-2.739,0A2.739,2.739,0,1,1,2.739,0" stroke="#eeca3b" stroke-width="2" opacity="1"/><path aria-label="Year: 2021; Overnight stays per total population (%): 0.32; Country: United Kingdom" role="graphics-symbol" aria-roledescription="point" transform="translate(305.55555555555554,292.328009114791)" d="M2.739,0A2.739,2.739,0,1,1,-2.739,0A2.739,2.739,0,1,1,2.739,0" stroke="#eeca3b" stroke-width="2" opacity="1"/><path aria-label="Year: 2022; Overnight stays per total population (%): 1.17; Country: United Kingdom" role="graphics-symbol" aria-roledescription="point" transform="translate(361.11111111111114,229.01247616158474)" d="M2.739,0A2.739,2.739,0,1,1,-2.739,0A2.739,2.739,0,1,1,2.739,0" stroke="#eeca3b" stroke-width="2" opacity="1"/><path aria-label="Year: 2023; Overnight stays per total population (%): 1.47; Country: United Kingdom" role="graphics-symbol" aria-roledescription="point" transform="translate(416.6666666666667,206.66581747221784)" d="M2.739,0A2.739,2.739,0,1,1,-2.739,0A2.739,2.739,0,1,1,2.739,0" stroke="#eeca3b" stroke-width="2" opacity="1"/><path aria-label="Year: 2024; Overnight stays per total population (%): 1.66; Country: United Kingdom" role="graphics-symbol" aria-roledescription="point" transform="translate(472.22222222222223,192.51293363561877)" d="M2.739,0A2.739,2.739,0,1,1,-2.739,0A2.739,2.739,0,1,1,2.739,0" stroke="#eeca3b" stroke-width="2" opacity="1"/><path aria-label="Year: 2016; Overnight stays per total population (%): 1.1; Country: Ireland" role="graphics-symbol" aria-roledescription="point" transform="translate(27.77777777777777,234.226696522437)" d="M2.739,0A2.739,2.739,0,1,1,-2.739,0A2.739,2.739,0,1,1,2.739,0" stroke="#72b7b2" stroke-width="2" opacity="1"/><path aria-label="Year: 2017; Overnight stays per total population (%): 1.29; Country: Ireland" role="graphics-symbol" aria-roledescription="point" transform="translate(83.33333333333333,220.073812685838)" d="M2.739,0A2.739,2.739,0,1,1,-2.739,0A2.739,2.739,0,1,1,2.739,0" stroke="#72b7b2" stroke-width="2" opacity="1"/><path aria-label="Year: 2018; Overnight stays per total population (%): 1.39; Country: Ireland" role="graphics-symbol" aria-roledescription="point" transform="translate(138.88888888888889,212.624926456049)" d="M2.739,0A2.739,2.739,0,1,1,-2.739,0A2.739,2.739,0,1,1,2.739,0" stroke="#72b7b2" stroke-width="2" opacity="1"/><path aria-label="Year: 2019; Overnight stays per total population (%): 1.4; Country: Ireland" role="graphics-symbol" aria-roledescription="point" transform="translate(194.44444444444446,211.88003783307013)" d="M2.739,0A2.739,2.739,0,1,1,-2.739,0A2.739,2.739,0,1,1,2.739,0" stroke="#72b7b2" stroke-width="2" opacity="1"/><path aria-label="Year: 2020; Overnight stays per total population (%): 0.4; Country: Ireland" role="graphics-symbol" aria-roledescription="point" transform="translate(250,286.3689001309598)" d="M2.739,0A2.739,2.739,0,1,1,-2.739,0A2.739,2.739,0,1,1,2.739,0" stroke="#72b7b2" stroke-width="2" opacity="1"/><path aria-label="Year: 2021; Overnight stays per total population (%): 0.6; Country: Ireland" role="graphics-symbol" aria-roledescription="point" transform="translate(305.55555555555554,271.4711276713819)" d="M2.739,0A2.739,2.739,0,1,1,-2.739,0A2.739,2.739,0,1,1,2.739,0" stroke="#72b7b2" stroke-width="2" opacity="1"/><path aria-label="Year: 2022; Overnight stays per total population (%): 1.65; Country: Ireland" role="graphics-symbol" aria-roledescription="point" transform="translate(361.11111111111114,193.25782225859768)" d="M2.739,0A2.739,2.739,0,1,1,-2.739,0A2.739,2.739,0,1,1,2.739,0" stroke="#72b7b2" stroke-width="2" opacity="1"/><path aria-label="Year: 2023; Overnight stays per total population (%): 2.33; Country: Ireland" role="graphics-symbol" aria-roledescription="point" transform="translate(416.6666666666667,142.60539589603266)" d="M2.739,0A2.739,2.739,0,1,1,-2.739,0A2.739,2.739,0,1,1,2.739,0" stroke="#72b7b2" stroke-width="2" opacity="1"/><path aria-label="Year: 2024; Overnight stays per total population (%): 2.28; Country: Ireland" role="graphics-symbol" aria-roledescription="point" transform="translate(472.22222222222223,146.32983901092717)" d="M2.739,0A2.739,2.739,0,1,1,-2.739,0A2.739,2.739,0,1,1,2.739,0" stroke="#72b7b2" stroke-width="2" opacity="1"/></g><g class="mark-rect role-mark select_interval_brush" clip-path="url(#clip3)" role="graphics-symbol" aria-roledescription="rect mark container"><path d="M0,0h0v0h0Z"/></g><g class="mark-group role-legend" role="graphics-symbol" aria-roledescription="legend" aria-label="Symbol legend titled 'Country' for stroke color with 6 values: Austria, Belgium, France, Ireland, Switzerland, United Kingdom"><g transform="translate(518,0)"><path class="background" aria-hidden="true" d="M0,0h88v109h-88Z" pointer-events="none"/><g><g class="mark-group role-legend-entry"><g transform="translate(0,16)"><path class="background" aria-hidden="true" d="M0,0h0v0h0Z" pointer-events="none"/><g><g class="mark-group role-scope country_legend_entries" role="graphics-object" aria-roledescription="group mark container"><g transform="translate(0,0)"><path class="background" aria-hidden="true" d="M0,0h87.15234375v12.5h-87.15234375Z" opacity="1"/><g><g class="mark-symbol role-legend-symbol country_legend_symbols"><path transform="translate(6,6)" d="M5,0A5,5,0,1,1,-5,0A5,5,0,1,1,5,0" stroke="#4c78a8" stroke-width="1.5" opacity="0.35"/></g><g class="mark-text role-legend-label country_legend_labels"><text text-anchor="start" transform="translate(16,9)" font-family="sans-serif" font-size="10px" fill="#000" opacity="0.35">Austria</text></g></g><path class="foreground" aria-hidden="true" d="" display="none"/></g><g transform="translate(0,16)"><path class="background" aria-hidden="true" d="M0,0h87.15234375v12.5h-87.15234375Z" opacity="1"/><g><g class="mark-symbol role-legend-symbol country_legend_symbols"><path transform="translate(6,6)" d="M5,0A5,5,0,1,1,-5,0A5,5,0,1,1,5,0" stroke="#f58518" stroke-width="1.5" opacity="0.35"/></g><g class="mark-text role-legend-label country_legend_labels"><text text-anchor="start" transform="translate(16,9)" font-family="sans-serif" font-size="10px" fill="#000" opacity="0.35">Belgium</text></g></g><path class="foreground" aria-hidden="true" d="" display="none"/></g><g transform="translate(0,32)"><path class="background" aria-hidden="true" d="M0,0h87.15234375v12.5h-87.15234375Z" opacity="1"/><g><g class="mark-symbol role-legend-symbol country_legend_symbols"><path transform="translate(6,6)" d="M5,0A5,5,0,1,1,-5,0A5,5,0,1,1,5,0" stroke="#e45756" stroke-width="1.5" opacity="0.35"/></g><g class="mark-text role-legend-label country_legend_labels"><text text-anchor="start" transform="translate(16,9)" font-family="sans-serif" font-size="10px" fill="#000" opacity="0.35">France</text></g></g><path class="foreground" aria-hidden="true" d="" display="none"/></g><g transform="translate(0,48)"><path class="background" aria-hidden="true" d="M0,0h87.15234375v12.5h-87.15234375Z" opacity="1"/><g><g class="mark-symbol role-legend-symbol country_legend_symbols"><path transform="translate(6,6)" d="M5,0A5,5,0,1,1,-5,0A5,5,0,1,1,5,0" stroke="#72b7b2" stroke-width="1.5" opacity="1"/></g><g class="mark-text role-legend-label country_legend_labels"><text text-anchor="start" transform="translate(16,9)" font-family="sans-serif" font-size="10px" fill="#000" opacity="1">Ireland</text></g></g><path class="foreground" aria-hidden="true" d="" display="none"/></g><g transform="translate(0,64)"><path class="background" aria-hidden="true" d="M0,0h87.15234375v12.5h-87.15234375Z" opacity="1"/><g><g class="mark-symbol role-legend-symbol country_legend_symbols"><path transform="translate(6,6)" d="M5,0A5,5,0,1,1,-5,0A5,5,0,1,1,5,0" stroke="#54a24b" stroke-width="1.5" opacity="0.35"/></g><g class="mark-text role-legend-label country_legend_labels"><text text-anchor="start" transform="translate(16,9)" font-family="sans-serif" font-size="10px" fill="#000" opacity="0.35">Switzerland</text></g></g><path class="foreground" aria-hidden="true" d="" display="none"/></g><g transform="translate(0,80)"><path class="background" aria-hidden="true" d="M0,0h87.15234375v12.5h-87.15234375Z" opacity="1"/><g><g class="mark-symbol role-legend-symbol country_legend_symbols"><path transform="translate(6,6)" d="M5,0A5,5,0,1,1,-5,0A5,5,0,1,1,5,0" stroke="#eeca3b" stroke-width="1.5" opacity="1"/></g><g class="mark-text role-legend-label country_legend_labels"><text text-anchor="start" transform="translate(16,9)" font-family="sans-serif" font-size="10px" fill="#000" opacity="1">United Kingdom</text></g></g><path class="foreground" aria-hidden="true" d="" display="none"/></g></g></g><path class="foreground" aria-hidden="true" d="" pointer-events="none" display="none"/></g></g><g class="mark-text role-legend-title" pointer-events="none"><text text-anchor="start" transform="translate(0,9)" font-family="sans-serif" font-size="11px" font-weight="bold" fill="#000" opacity="1">Country</text></g></g><path class="foreground" aria-hidden="true" d="" pointer-events="none" display="none"/></g></g><g class="mark-group role-title"><g transform="translate(250,-17)"><path class="background" aria-hidden="true" d="M0,0h0v0h0Z" pointer-events="none"/><g><g class="mark-text role-title-text" role="graphics-symbol" aria-roledescription="title" aria-label="Title text 'Overnight stays by population'" pointer-events="none"><text text-anchor="middle" transform="translate(0,10)" font-family="sans-serif" font-size="13px" font-weight="bold" fill="#000" opacity="1">Overnight stays by population</text></g></g><path class="foreground" aria-hidden="true" d="" pointer-events="none" display="none"/></g></g></g><path class="foreground" aria-hidden="true" d="" display="none"/></g></g></g><defs><clipPath id="clip1"><rect x="0" y="0" width="500" height="300"/></clipPath><clipPath id="clip2"><rect x="0" y="0" width="500" height="300"/></clipPath><clipPath id="clip3"><rect x="0" y="0" width="500" height="300"/></clipPath></defs></svg>