<svg xmlns="http://www.w3.org/2000/svg" xmlns:xlink="http://www.w3.org/1999/xlink" version="1.1" class="marks" width="652" height="372" viewBox="0 0 652 372"><rect width="652" height="372" fill="white"/><g fill="none" stroke-miterlimit="10" transform="translate(41,22)"><g class="mark-group role-frame root" role="graphics-object" aria-roledescription="group mark container"><g transform="translate(0,0)"><path class="background" aria-hidden="true" d="M0.5,0.5h500v300h-500Z" stroke="#ddd"/><g><g class="mark-group role-axis" aria-hidden="true"><g transform="translate(0.5,0.5)"><path class="background" aria-hidden="true" d="M0,0h0v0h0Z" pointer-events="none"/><g><g class="mark-rule role-axis-grid" pointer-events="none"><line transform="translate(0,300)" x2="500" y2="0" stroke="#ddd" stroke-width="1" opacity="1"/><line transform="translate(0,246)" x2="500" y2="0" stroke="#ddd" stroke-width="1" opacity="1"/><line transform="translate(0,193)" x2="500" y2="0" stroke="#ddd" stroke-width="1" opacity="1"/><line transform="translate(0,139)" x2="500" y2="0" stroke="#ddd" stroke-width="1" opacity="1"/><line transform="translate(0,86)" x2="500" y2="0" stroke="#ddd" stroke-width="1" opacity="1"/><line transform="translate(0,32)" x2="500" y2="0" stroke="#ddd" stroke-width="1" opacity="1"/></g></g><path class="foreground" aria-hidden="true" d="" pointer-events="none" display="none"/></g></g><g class="mark-group role-axis" role="graphics-symbol" aria-roledescription="axis" aria-label="X-axis titled 'Year' for a discrete scale with 11 values: 2005, 2006, 2007, 2008, 2009, ending with 2015"><g transform="translate(0.5,300.5)"><path class="background" aria-hidden="true" d="M0,0h0v0h0Z" pointer-events="none"/><g><g class="mark-rule role-axis-tick" pointer-events="none"><line transform="translate(23,0)" x2="0" y2="5" stroke="#888" stroke-width="1" opacity="1"/><line transform="translate(68,0)" x2="0" y2="5" stroke="#888" stroke-width="1" opacity="1"/><line transform="translate(114,0)" x2="0" y2="5" stroke="#888" stroke-width="1" opacity="1"/><line transform="translate(159,0)" x2="0" y2="5" stroke="#888" stroke-width="1" opacity="1"/><line transform="translate(205,0)" x2="0" y2="5" stroke="#888" stroke-width="1" opacity="1"/><line transform="translate(250,0)" x2="0" y2="5" stroke="#888" stroke-width="1" opacity="1"/><line transform="translate(295,0)" x2="0" y2="5" stroke="#888" stroke-width="1" opacity="1"/><line transform="translate(341,0)" x2="0" y2="5" stroke="#888" stroke-width="1" opacity="1"/><line transform="translate(386,0)" x2="0" y2="5" stroke="#888" stroke-width="1" opacity="1"/><line transform="translate(432,0)" x2="0" y2="5" stroke="#888" stroke-width="1" opacity="1"/><line transform="translate(477,0)" x2="0" y2="5" stroke="#888" stroke-width="1" opacity="1"/></g><g class="mark-text role-axis-label" pointer-events="none"><text text-anchor="end" transform="translate(22.727272727272748,7) rotate(270) translate(0,3)" font-family="sans-serif" font-size="10px" fill="#000" opacity="1">2005</text><text text-anchor="end" transform="translate(68.1818181818182,7) rotate(270) translate(0,3)" font-family="sans-serif" font-size="10px" fill="#000" opacity="1">2006</text><text text-anchor="end" transform="translate(113.63636363636365,7) rotate(270) translate(0,3)" font-family="sans-serif" font-size="10px" fill="#000" opacity="1">2007</text><text text-anchor="end" transform="translate(159.09090909090912,7) rotate(270) translate(0,3)" font-family="sans-serif" font-size="10px" fill="#000" opacity="1">2008</text><text text-anchor="end" transform="translate(204.54545454545456,7) rotate(270) translate(0,3)" font-family="sans-serif" font-size="10px" fill="#000" opacity="1">2009</text><text text-anchor="end" transform="translate(250,7) rotate(270) translate(0,3)" font-family="sans-serif" font-size="10px" fill="#000" opacity="1">2010</text><text text-anchor="end" transform="translate(295.4545454545455,7) rotate(270) translate(0,3)" font-family="sans-serif" font-size="10px" fill="#000" opacity="1">2011</text><text text-anchor="end" transform="translate(340.90909090909093,7) rotate(270) translate(0,3)" font-family="sans-serif" font-size="10px" fill="#000" opacity="1">2012</text><text text-anchor="end" transform="translate(386.3636363636364,7) rotate(270) translate(0,3)" font-family="sans-serif" font-size="10px" fill="#000" opacity="1">2013</text><text text-anchor="end" transform="translate(431.8181818181818,7) rotate(270) translate(0,3)" font-family="sans-serif" font-size="10px" fill="#000" opacity="1">2014</text><text text-anchor="end" transform="translate(477.27272727272725,7) rotate(270) translate(0,3)" font-family="sans-serif" font-size="10px" fill="#000" opacity="1">2015</text></g><g class="mark-rule role-axis-domain" pointer-events="none"><line transform="translate(0,0)" x2="500" y2="0" stroke="#888" stroke-width="1" opacity="1"/></g><g class="mark-text role-axis-title" pointer-events="none"><text text-anchor="middle" transform="translate(250,42.24609375)" font-family="sans-serif" font-size="11px" font-weight="bold" fill="#000" opacity="1">Year</text></g></g><path class="foreground" aria-hidden="true" d="" pointer-events="none" display="none"/></g></g><g class="mark-group role-axis" role="graphics-symbol" aria-roledescription="axis" aria-label="Y-axis titled 'Overnight stays per total population (%)' for a linear scale with values from 0.0 to 2.8"><g transform="translate(0.5,0.5)"><path class="background" aria-hidden="true" d="M0,0h0v0h0Z" pointer-events="none"/><g><g class="mark-rule role-axis-tick" pointer-events="none"><line transform="translate(0,300)" x2="-5" y2="0" stroke="#888" stroke-width="1" opacity="1"/><line transform="translate(0,246)" x2="-5" y2="0" stroke="#888" stroke-width="1" opacity="1"/><line transform="translate(0,193)" x2="-5" y2="0" stroke="#888" stroke-width="1" opacity="1"/><line transform="translate(0,139)" x2="-5" y2="0" stroke="#888" stroke-width="1" opacity="1"/><line transform="translate(0,86)" x2="-5" y2="0" stroke="#888" stroke-width="1" opacity="1"/><line transform="translate(0,32)" x2="-5" y2="0" stroke="#888" stroke-width="1" opacity="1"/></g><g class="mark-text role-axis-label" pointer-events="none"><text text-anchor="end" transform="translate(-7,303)" font-family="sans-serif" font-size="10px" fill="#000" opacity="1">0.0</text><text text-anchor="end" transform="translate(-7,249.42857142857142)" font-family="sans-serif" font-size="10px" fill="#000" opacity="1">0.5</text><text text-anchor="end" transform="translate(-7,195.85714285714283)" font-family="sans-serif" font-size="10px" fill="#000" opacity="1">1.0</text><text text-anchor="end" transform="translate(-7,142.28571428571428)" font-family="sans-serif" font-size="10px" fill="#000" opacity="1">1.5</text><text text-anchor="end" transform="translate(-7,88.71428571428571)" font-family="sans-serif" font-size="10px" fill="#000" opacity="1">2.0</text><text text-anchor="end" transform="translate(-7,35.14285714285713)" font-family="sans-serif" font-size="10px" fill="#000" opacity="1">2.5</text></g><g class="mark-rule role-axis-domain" pointer-events="none"><line transform="translate(0,300)" x2="0" y2="-300" stroke="#888" stroke-width="1" opacity="1"/></g><g class="mark-text role-axis-title" pointer-events="none"><text text-anchor="middle" transform="translate(-24.9013671875,150) rotate(-90) translate(0,-2)" font-family="sans-serif" font-size="11px" font-weight="bold" fill="#000" opacity="1">Overnight stays per total population (%)</text></g></g><path class="foreground" aria-hidden="true" d="" pointer-events="none" display="none"/></g></g><g class="mark-rect role-mark select_interval_brush_bg" clip-path="url(#clip4)" role="graphics-symbol" aria-roledescription="rect mark container"><path d="M0,0h0v0h0Z" fill="#669EFF" fill-opacity="0.07"/></g><g class="mark-symbol role-mark marks" clip-path="url(#clip5)" role="graphics-object" aria-roledescription="symbol mark container"><path aria-label="Year: 2005; Overnight stays per total population (%): 0.45; Country: Austria" role="graphics-symbol" aria-roledescription="point" transform="translate(22.727272727272748,251.78571428571428)" d="M2.739,0A2.739,2.739,0,1,1,-2.739,0A2.739,2.739,0,1,1,2.739,0" stroke="#4c78a8" stroke-width="2" opacity="0.2"/><path aria-label="Year: 2006; Overnight stays per total population (%): 0.42; Country: Austria" role="graphics-symbol" aria-roledescription="point" transform="translate(68.1818181818182,255)" d="M2.739,0A2.739,2.739,0,1,1,-2.739,0A2.739,2.739,0,1,1,2.739,0" stroke="#4c78a8" stroke-width="2" opacity="0.2"/><path aria-label="Year: 2007; Overnight stays per total population (%): 0.4; Country: Austria" role="graphics-symbol" aria-roledescription="point" transform="translate(113.63636363636365,257.1428571428571)" d="M2.739,0A2.739,2.739,0,1,1,-2.739,0A2.739,2.739,0,1,1,2.739,0" stroke="#4c78a8" stroke-width="2" opacity="0.2"/><path aria-label="Year: 2008; Overnight stays per total population (%): 0.4; Country: Austria" role="graphics-symbol" aria-roledescription="point" transform="translate(159.09090909090912,257.1428571428571)" d="M2.739,0A2.739,2.739,0,1,1,-2.739,0A2.739,2.739,0,1,1,2.739,0" stroke="#4c78a8" stroke-width="2" opacity="0.2"/><path aria-label="Year: 2009; Overnight stays per total population (%): 0.42; Country: Austria" role="graphics-symbol" aria-roledescription="point" transform="translate(204.54545454545456,255)" d="M2.739,0A2.739,2.739,0,1,1,-2.739,0A2.739,2.739,0,1,1,2.739,0" stroke="#4c78a8" stroke-width="2" opacity="0.2"/><path aria-label="Year: 2010; Overnight stays per total population (%): 0.61; Country: Austria" role="graphics-symbol" aria-roledescription="point" transform="translate(250,234.64285714285714)" d="M2.739,0A2.739,2.739,0,1,1,-2.739,0A2.739,2.739,0,1,1,2.739,0" stroke="#4c78a8" stroke-width="2" opacity="0.2"/><path aria-label="Year: 2011; Overnight stays per total population (%): 0.65; Country: Austria" role="graphics-symbol" aria-roledescription="point" transform="translate(295.4545454545455,230.35714285714283)" d="M2.739,0A2.739,2.739,0,1,1,-2.739,0A2.739,2.739,0,1,1,2.739,0" stroke="#4c78a8" stroke-width="2" opacity="0.2"/><path aria-label="Year: 2012; Overnight stays per total population (%): 0.74; Country: Austria" role="graphics-symbol" aria-roledescription="point" transform="translate(340.90909090909093,220.71428571428572)" d="M2.739,0A2.739,2.739,0,1,1,-2.739,0A2.739,2.739,0,1,1,2.739,0" stroke="#4c78a8" stroke-width="2" opacity="0.2"/><path aria-label="Year: 2013; Overnight stays per total population (%): 0.81; Country: Austria" role="graphics-symbol" aria-roledescription="point" transform="translate(386.3636363636364,213.2142857142857)" d="M2.739,0A2.739,2.739,0,1,1,-2.739,0A2.739,2.739,0,1,1,2.739,0" stroke="#4c78a8" stroke-width="2" opacity="0.2"/><path aria-label="Year: 2014; Overnight stays per total population (%): 0.84; Country: Austria" role="graphics-symbol" aria-roledescription="point" transform="translate(431.8181818181818,210)" d="M2.739,0A2.739,2.739,0,1,1,-2.739,0A2.739,2.739,0,1,1,2.739,0" stroke="#4c78a8" stroke-width="2" opacity="0.2"/><path aria-label="Year: 2015; Overnight stays per total population (%): 0.74; Country: Austria" role="graphics-symbol" aria-roledescription="point" transform="translate(477.27272727272725,220.71428571428572)" d="M2.739,0A2.739,2.739,0,1,1,-2.739,0A2.739,2.739,0,1,1,2.739,0" stroke="#4c78a8" stroke-width="2" opacity="0.2"/><path aria-label="Year: 2005; Overnight stays per total population (%): 0.59; Country: Belgium" role="graphics-symbol" aria-roledescription="point" transform="translate(22.727272727272748,236.78571428571428)" d="M2.739,0A2.739,2.739,0,1,1,-2.739,0A2.739,2.739,0,1,1,2.739,0" stroke="#f58518" stroke-width="2" opacity="0.2"/><path aria-label="Year: 2006; Overnight stays per total population (%): 0.6; Country: Belgium" role="graphics-symbol" aria-roledescription="point" transform="translate(68.1818181818182,235.71428571428572)" d="M2.739,0A2.739,2.739,0,1,1,-2.739,0A2.739,2.739,0,1,1,2.739,0" stroke="#f58518" stroke-width="2" opacity="0.2"/><path aria-label="Year: 2007; Overnight stays per total population (%): 0.59; Country: Belgium" role="graphics-symbol" aria-roledescription="point" transform="translate(113.63636363636365,236.78571428571428)" d="M2.739,0A2.739,2.739,0,1,1,-2.739,0A2.739,2.739,0,1,1,2.739,0" stroke="#f58518" stroke-width="2" opacity="0.2"/><path aria-label="Year: 2008; Overnight stays per total population (%): 0.6; Country: Belgium" role="graphics-symbol" aria-roledescription="point" transform="translate(159.09090909090912,235.71428571428572)" d="M2.739,0A2.739,2.739,0,1,1,-2.739,0A2.739,2.739,0,1,1,2.739,0" stroke="#f58518" stroke-width="2" opacity="0.2"/><path aria-label="Year: 2009; Overnight stays per total population (%): 0.67; Country: Belgium" role="graphics-symbol" aria-roledescription="point" transform="translate(204.54545454545456,228.2142857142857)" d="M2.739,0A2.739,2.739,0,1,1,-2.739,0A2.739,2.739,0,1,1,2.739,0" stroke="#f58518" stroke-width="2" opacity="0.2"/><path aria-label="Year: 2010; Overnight stays per total population (%): 0.75; Country: Belgium" role="graphics-symbol" aria-roledescription="point" transform="translate(250,219.64285714285717)" d="M2.739,0A2.739,2.739,0,1,1,-2.739,0A2.739,2.739,0,1,1,2.739,0" stroke="#f58518" stroke-width="2" opacity="0.2"/><path aria-label="Year: 2011; Overnight stays per total population (%): 0.91; Country: Belgium" role="graphics-symbol" aria-roledescription="point" transform="translate(295.4545454545455,202.5)" d="M2.739,0A2.739,2.739,0,1,1,-2.739,0A2.739,2.739,0,1,1,2.739,0" stroke="#f58518" stroke-width="2" opacity="0.2"/><path aria-label="Year: 2012; Overnight stays per total population (%): 0.88; Country: Belgium" role="graphics-symbol" aria-roledescription="point" transform="translate(340.90909090909093,205.71428571428572)" d="M2.739,0A2.739,2.739,0,1,1,-2.739,0A2.739,2.739,0,1,1,2.739,0" stroke="#f58518" stroke-width="2" opacity="0.2"/><path aria-label="Year: 2013; Overnight stays per total population (%): 0.94; Country: Belgium" role="graphics-symbol" aria-roledescription="point" transform="translate(386.3636363636364,199.28571428571428)" d="M2.739,0A2.739,2.739,0,1,1,-2.739,0A2.739,2.739,0,1,1,2.739,0" stroke="#f58518" stroke-width="2" opacity="0.2"/><path aria-label="Year: 2014; Overnight stays per total population (%): 1.02; Country: Belgium" role="graphics-symbol" aria-roledescription="point" transform="translate(431.8181818181818,190.7142857142857)" d="M2.739,0A2.739,2.739,0,1,1,-2.739,0A2.739,2.739,0,1,1,2.739,0" stroke="#f58518" stroke-width="2" opacity="0.2"/><path aria-label="Year: 2015; Overnight stays per total population (%): 1.09; Country: Belgium" role="graphics-symbol" aria-roledescription="point" transform="translate(477.27272727272725,183.2142857142857)" d="M2.739,0A2.739,2.739,0,1,1,-2.739,0A2.739,2.739,0,1,1,2.739,0" stroke="#f58518" stroke-width="2" opacity="0.2"/><path aria-label="Year: 2005; Overnight stays per total population (%): 1.3; Country: Switzerland" role="graphics-symbol" aria-roledescription="point" transform="translate(22.727272727272748,160.71428571428567)" d="M2.739,0A2.739,2.739,0,1,1,-2.739,0A2.739,2.739,0,1,1,2.739,0" stroke="#54a24b" stroke-width="2" opacity="1"/><path aria-label="Year: 2006; Overnight stays per total population (%): 1.37; Country: Switzerland" role="graphics-symbol" aria-roledescription="point" transform="translate(68.1818181818182,153.2142857142857)" d="M2.739,0A2.739,2.739,0,1,1,-2.739,0A2.739,2.739,0,1,1,2.739,0" stroke="#54a24b" stroke-width="2" opacity="1"/><path aria-label="Year: 2007; Overnight stays per total population (%): 1.48; Country: Switzerland" role="graphics-symbol" aria-roledescription="point" transform="translate(113.63636363636365,141.42857142857142)" d="M2.739,0A2.739,2.739,0,1,1,-2.739,0A2.739,2.739,0,1,1,2.739,0" stroke="#54a24b" stroke-width="2" opacity="1"/><path aria-label="Year: 2008; Overnight stays per total population (%): 1.44; Country: Switzerland" role="graphics-symbol" aria-roledescription="point" transform="translate(159.09090909090912,145.7142857142857)" d="M2.739,0A2.739,2.739,0,1,1,-2.739,0A2.739,2.739,0,1,1,2.739,0" stroke="#54a24b" stroke-width="2" opacity="1"/><path aria-label="Year: 2009; Overnight stays per total population (%): 1.59; Country: Switzerland" role="graphics-symbol" aria-roledescription="point" transform="translate(204.54545454545456,129.6428571428571)" d="M2.739,0A2.739,2.739,0,1,1,-2.739,0A2.739,2.739,0,1,1,2.739,0" stroke="#54a24b" stroke-width="2" opacity="1"/><path aria-label="Year: 2010; Overnight stays per total population (%): 1.71; Country: Switzerland" role="graphics-symbol" aria-roledescription="point" transform="translate(250,116.78571428571428)" d="M2.739,0A2.739,2.739,0,1,1,-2.739,0A2.739,2.739,0,1,1,2.739,0" stroke="#54a24b" stroke-width="2" opacity="1"/><path aria-label="Year: 2011; Overnight stays per total population (%): 2.23; Country: Switzerland" role="graphics-symbol" aria-roledescription="point" transform="translate(295.4545454545455,61.071428571428555)" d="M2.739,0A2.739,2.739,0,1,1,-2.739,0A2.739,2.739,0,1,1,2.739,0" stroke="#54a24b" stroke-width="2" opacity="1"/><path aria-label="Year: 2012; Overnight stays per total population (%): 2.3; Country: Switzerland" role="graphics-symbol" aria-roledescription="point" transform="translate(340.90909090909093,53.571428571428584)" d="M2.739,0A2.739,2.739,0,1,1,-2.739,0A2.739,2.739,0,1,1,2.739,0" stroke="#54a24b" stroke-width="2" opacity="1"/><path aria-label="Year: 2013; Overnight stays per total population (%): 2.29; Country: Switzerland" role="graphics-symbol" aria-roledescription="point" transform="translate(386.3636363636364,54.64285714285712)" d="M2.739,0A2.739,2.739,0,1,1,-2.739,0A2.739,2.739,0,1,1,2.739,0" stroke="#54a24b" stroke-width="2" opacity="1"/><path aria-label="Year: 2014; Overnight stays per total population (%): 2.54; Country: Switzerland" role="graphics-symbol" aria-roledescription="point" transform="translate(431.8181818181818,27.857142857142826)" d="M2.739,0A2.739,2.739,0,1,1,-2.739,0A2.739,2.739,0,1,1,2.739,0" stroke="#54a24b" stroke-width="2" opacity="1"/><path aria-label="Year: 2015; Overnight stays per total population (%): 2.73; Country: Switzerland" role="graphics-symbol" aria-roledescription="point" transform="translate(477.27272727272725,7.499999999999973)" d="M2.739,0A2.739,2.739,0,1,1,-2.739,0A2.739,2.739,0,1,1,2.739,0" stroke="#54a24b" stroke-width="2" opacity="1"/><path aria-label="Year: 2005; Overnight stays per total population (%): 0.22; Country: France" role="graphics-symbol" aria-roledescription="point" transform="translate(22.727272727272748,276.4285714285714)" d="M2.739,0A2.739,2.739,0,1,1,-2.739,0A2.739,2.739,0,1,1,2.739,0" stroke="#e45756" stroke-width="2" opacity="0.2"/><path aria-label="Year: 2006; Overnight stays per total population (%): 0.23; Country: France" role="graphics-symbol" aria-roledescription="point" transform="translate(68.1818181818182,275.35714285714283)" d="M2.739,0A2.739,2.739,0,1,1,-2.739,0A2.739,2.739,0,1,1,2.739,0" stroke="#e45756" stroke-width="2" opacity="0.2"/><path aria-label="Year: 2007; Overnight stays per total population (%): 0.21; Country: France" role="graphics-symbol" aria-roledescription="point" transform="translate(113.63636363636365,277.5)" d="M2.739,0A2.739,2.739,0,1,1,-2.739,0A2.739,2.739,0,1,1,2.739,0" stroke="#e45756" stroke-width="2" opacity="0.2"/><path aria-label="Year: 2008; Overnight stays per total population (%): 0.21; Country: France" role="graphics-symbol" aria-roledescription="point" transform="translate(159.09090909090912,277.5)" d="M2.739,0A2.739,2.739,0,1,1,-2.739,0A2.739,2.739,0,1,1,2.739,0" stroke="#e45756" stroke-width="2" opacity="0.2"/><path aria-label="Year: 2009; Overnight stays per total population (%): 0.23; Country: France" role="graphics-symbol" aria-roledescription="point" transform="translate(204.54545454545456,275.35714285714283)" d="M2.739,0A2.739,2.739,0,1,1,-2.739,0A2.739,2.739,0,1,1,2.739,0" stroke="#e45756" stroke-width="2" opacity="0.2"/><path aria-label="Year: 2010; Overnight stays per total population (%): 0.27; Country: France" role="graphics-symbol" aria-roledescription="point" transform="translate(250,271.07142857142856)" d="M2.739,0A2.739,2.739,0,1,1,-2.739,0A2.739,2.739,0,1,1,2.739,0" stroke="#e45756" stroke-width="2" opacity="0.2"/><path aria-label="Year: 2011; Overnight stays per total population (%): 0.31; Country: France" role="graphics-symbol" aria-roledescription="point" transform="translate(295.4545454545455,266.7857142857143)" d="M2.739,0A2.739,2.739,0,1,1,-2.739,0A2.739,2.739,0,1,1,2.739,0" stroke="#e45756" stroke-width="2" opacity="0.2"/><path aria-label="Year: 2012; Overnight stays per total population (%): 0.32; Country: France" role="graphics-symbol" aria-roledescription="point" transform="translate(340.90909090909093,265.7142857142857)" d="M2.739,0A2.739,2.739,0,1,1,-2.739,0A2.739,2.739,0,1,1,2.739,0" stroke="#e45756" stroke-width="2" opacity="0.2"/><path aria-label="Year: 2013; Overnight stays per total population (%): 0.32; Country: France" role="graphics-symbol" aria-roledescription="point" transform="translate(386.3636363636364,265.7142857142857)" d="M2.739,0A2.739,2.739,0,1,1,-2.739,0A2.739,2.739,0,1,1,2.739,0" stroke="#e45756" stroke-width="2" opacity="0.2"/><path aria-label="Year: 2014; Overnight stays per total population (%): 0.33; Country: France" role="graphics-symbol" aria-roledescription="point" transform="translate(431.8181818181818,264.6428571428571)" d="M2.739,0A2.739,2.739,0,1,1,-2.739,0A2.739,2.739,0,1,1,2.739,0" stroke="#e45756" stroke-width="2" opacity="0.2"/><path aria-label="Year: 2015; Overnight stays per total population (%): 0.32; Country: France" role="graphics-symbol" aria-roledescription="point" transform="translate(477.27272727272725,265.7142857142857)" d="M2.739,0A2.739,2.739,0,1,1,-2.739,0A2.739,2.739,0,1,1,2.739,0" stroke="#e45756" stroke-width="2" opacity="0.2"/><path aria-label="Year: 2005; Overnight stays per total population (%): 0.98; Country: United Kingdom" role="graphics-symbol" aria-roledescription="point" transform="translate(22.727272727272748,194.99999999999997)" d="M2.739,0A2.739,2.739,0,1,1,-2.739,0A2.739,2.739,0,1,1,2.739,0" stroke="#eeca3b" stroke-width="2" opacity="1"/><path aria-label="Year: 2006; Overnight stays per total population (%): 0.97; Country: United Kingdom" role="graphics-symbol" aria-roledescription="point" transform="translate(68.1818181818182,196.07142857142858)" d="M2.739,0A2.739,2.739,0,1,1,-2.739,0A2.739,2.739,0,1,1,2.739,0" stroke="#eeca3b" stroke-width="2" opacity="1"/><path aria-label="Year: 2007; Overnight stays per total population (%): 0.96; Country: United Kingdom" role="graphics-symbol" aria-roledescription="point" transform="translate(113.63636363636365,197.14285714285714)" d="M2.739,0A2.739,2.739,0,1,1,-2.739,0A2.739,2.739,0,1,1,2.739,0" stroke="#eeca3b" stroke-width="2" opacity="1"/><path aria-label="Year: 2008; Overnight stays per total population (%): 0.87; Country: United Kingdom" role="graphics-symbol" aria-roledescription="point" transform="translate(159.09090909090912,206.78571428571428)" d="M2.739,0A2.739,2.739,0,1,1,-2.739,0A2.739,2.739,0,1,1,2.739,0" stroke="#eeca3b" stroke-width="2" opacity="1"/><path aria-label="Year: 2009; Overnight stays per total population (%): 0.77; Country: United Kingdom" role="graphics-symbol" aria-roledescription="point" transform="translate(204.54545454545456,217.5)" d="M2.739,0A2.739,2.739,0,1,1,-2.739,0A2.739,2.739,0,1,1,2.739,0" stroke="#eeca3b" stroke-width="2" opacity="1"/><path aria-label="Year: 2010; Overnight stays per total population (%): 0.84; Country: United Kingdom" role="graphics-symbol" aria-roledescription="point" transform="translate(250,210)" d="M2.739,0A2.739,2.739,0,1,1,-2.739,0A2.739,2.739,0,1,1,2.739,0" stroke="#eeca3b" stroke-width="2" opacity="1"/><path aria-label="Year: 2011; Overnight stays per total population (%): 0.94; Country: United Kingdom" role="graphics-symbol" aria-roledescription="point" transform="translate(295.4545454545455,199.28571428571428)" d="M2.739,0A2.739,2.739,0,1,1,-2.739,0A2.739,2.739,0,1,1,2.739,0" stroke="#eeca3b" stroke-width="2" opacity="1"/><path aria-label="Year: 2012; Overnight stays per total population (%): 0.96; Country: United Kingdom" role="graphics-symbol" aria-roledescription="point" transform="translate(340.90909090909093,197.14285714285714)" d="M2.739,0A2.739,2.739,0,1,1,-2.739,0A2.739,2.739,0,1,1,2.739,0" stroke="#eeca3b" stroke-width="2" opacity="1"/><path aria-label="Year: 2013; Overnight stays per total population (%): 1.05; Country: United Kingdom" role="graphics-symbol" aria-roledescription="point" transform="translate(386.3636363636364,187.5)" d="M2.739,0A2.739,2.739,0,1,1,-2.739,0A2.739,2.739,0,1,1,2.739,0" stroke="#eeca3b" stroke-width="2" opacity="1"/><path aria-label="Year: 2014; Overnight stays per total population (%): 1.12; Country: United Kingdom" role="graphics-symbol" aria-roledescription="point" transform="translate(431.8181818181818,179.99999999999997)" d="M2.739,0A2.739,2.739,0,1,1,-2.739,0A2.739,2.739,0,1,1,2.739,0" stroke="#eeca3b" stroke-width="2" opacity="1"/><path aria-label="Year: 2015; Overnight stays per total population (%): 1.26; Country: United Kingdom" role="graphics-symbol" aria-roledescription="point" transform="translate(477.27272727272725,165)" d="M2.739,0A2.739,2.739,0,1,1,-2.739,0A2.739,2.739,0,1,1,2.739,0" stroke="#eeca3b" stroke-width="2" opacity="1"/><path aria-label="Year: 2005; Overnight stays per total population (%): 0.65; Country: Ireland" role="graphics-symbol" aria-roledescription="point" transform="translate(22.727272727272748,230.35714285714283)" d="M2.739,0A2.739,2.739,0,1,1,-2.739,0A2.739,2.739,0,1,1,2.739,0" stroke="#72b7b2" stroke-width="2" opacity="0.2"/><path aria-label="Year: 2006; Overnight stays per total population (%): 0.83; Country: Ireland" role="graphics-symbol" aria-roledescription="point" transform="translate(68.1818181818182,211.07142857142856)" d="M2.739,0A2.739,2.739,0,1,1,-2.739,0A2.739,2.739,0,1,1,2.739,0" stroke="#72b7b2" stroke-width="2" opacity="0.2"/><path aria-label="Year: 2007; Overnight stays per total population (%): 0.64; Country: Ireland" role="graphics-symbol" aria-roledescription="point" transform="translate(113.63636363636365,231.42857142857142)" d="M2.739,0A2.739,2.739,0,1,1,-2.739,0A2.739,2.739,0,1,1,2.739,0" stroke="#72b7b2" stroke-width="2" opacity="0.2"/><path aria-label="Year: 2008; Overnight stays per total population (%): 0.67; Country: Ireland" role="graphics-symbol" aria-roledescription="point" transform="translate(159.09090909090912,228.2142857142857)" d="M2.739,0A2.739,2.739,0,1,1,-2.739,0A2.739,2.739,0,1,1,2.739,0" stroke="#72b7b2" stroke-width="2" opacity="0.2"/><path aria-label="Year: 2009; Overnight stays per total population (%): 0.45; Country: Ireland" role="graphics-symbol" aria-roledescription="point" transform="translate(204.54545454545456,251.78571428571428)" d="M2.739,0A2.739,2.739,0,1,1,-2.739,0A2.739,2.739,0,1,1,2.739,0" stroke="#72b7b2" stroke-width="2" opacity="0.2"/><path aria-label="Year: 2010; Overnight stays per total population (%): 0.45; Country: Ireland" role="graphics-symbol" aria-roledescription="point" transform="translate(250,251.78571428571428)" d="M2.739,0A2.739,2.739,0,1,1,-2.739,0A2.739,2.739,0,1,1,2.739,0" stroke="#72b7b2" stroke-width="2" opacity="0.2"/><path aria-label="Year: 2011; Overnight stays per total population (%): 0.6; Country: Ireland" role="graphics-symbol" aria-roledescription="point" transform="translate(295.4545454545455,235.71428571428572)" d="M2.739,0A2.739,2.739,0,1,1,-2.739,0A2.739,2.739,0,1,1,2.739,0" stroke="#72b7b2" stroke-width="2" opacity="0.2"/><path aria-label="Year: 2012; Overnight stays per total population (%): 0.6; Country: Ireland" role="graphics-symbol" aria-roledescription="point" transform="translate(340.90909090909093,235.71428571428572)" d="M2.739,0A2.739,2.739,0,1,1,-2.739,0A2.739,2.739,0,1,1,2.739,0" stroke="#72b7b2" stroke-width="2" opacity="0.2"/><path aria-label="Year: 2013; Overnight stays per total population (%): 0.64; Country: Ireland" role="graphics-symbol" aria-roledescription="point" transform="translate(386.3636363636364,231.42857142857142)" d="M2.739,0A2.739,2.739,0,1,1,-2.739,0A2.739,2.739,0,1,1,2.739,0" stroke="#72b7b2" stroke-width="2" opacity="0.2"/><path aria-label="Year: 2014; Overnight stays per total population (%): 0.91; Country: Ireland" role="graphics-symbol" aria-roledescription="point" transform="translate(431.8181818181818,202.5)" d="M2.739,0A2.739,2.739,0,1,1,-2.739,0A2.739,2.739,0,1,1,2.739,0" stroke="#72b7b2" stroke-width="2" opacity="0.2"/><path aria-label="Year: 2015; Overnight stays per total population (%): 0.95; Country: Ireland" role="graphics-symbol" aria-roledescription="point" transform="translate(477.27272727272725,198.21428571428572)" d="M2.739,0A2.739,2.739,0,1,1,-2.739,0A2.739,2.739,0,1,1,2.739,0" stroke="#72b7b2" stroke-width="2" opacity="0.2"/></g><g class="mark-rect role-mark select_interval_brush" clip-path="url(#clip6)" role="graphics-symbol" aria-roledescription="rect mark container"><path d="M0,0h0v0h0Z"/></g><g class="mark-group role-legend" role="graphics-symbol" aria-roledescription="legend" aria-label="Symbol legend titled 'Country' for stroke color with 6 values: Austria, Belgium, France, Ireland, Switzerland, United Kingdom"><g transform="translate(518,0)"><path class="background" aria-hidden="true" d="M0,0h88v109h-88Z" pointer-events="none"/><g><g class="mark-group role-legend-entry"><g transform="translate(0,16)"><path class="background" aria-hidden="true" d="M0,0h0v0h0Z" pointer-events="none"/><g><g class="mark-group role-scope country_legend_entries" role="graphics-object" aria-roledescription="group mark container"><g transform="translate(0,0)"><path class="background" aria-hidden="true" d="M0,0h87.15234375v12.5h-87.15234375Z" opacity="1"/><g><g class="mark-symbol role-legend-symbol country_legend_symbols"><path transform="translate(6,6)" d="M5,0A5,5,0,1,1,-5,0A5,5,0,1,1,5,0" stroke="#4c78a8" stroke-width="1.5" opacity="0.35"/></g><g class="mark-text role-legend-label country_legend_labels"><text text-anchor="start" transform="translate(16,9)" font-family="sans-serif" font-size="10px" fill="#000" opacity="0.35">Austria</text></g></g><path class="foreground" aria-hidden="true" d="" display="none"/></g><g transform="translate(0,16)"><path class="background" aria-hidden="true" d="M0,0h87.15234375v12.5h-87.15234375Z" opacity="1"/><g><g class="mark-symbol role-legend-symbol country_legend_symbols"><path transform="translate(6,6)" d="M5,0A5,5,0,1,1,-5,0A5,5,0,1,1,5,0" stroke="#f58518" stroke-width="1.5" opacity="0.35"/></g><g class="mark-text role-legend-label country_legend_labels"><text text-anchor="start" transform="translate(16,9)" font-family="sans-serif" font-size="10px" fill="#000" opacity="0.35">Belgium</text></g></g><path class="foreground" aria-hidden="true" d="" display="none"/></g><g transform="translate(0,32)"><path class="background" aria-hidden="true" d="M0,0h87.15234375v12.5h-87.15234375Z" opacity="1"/><g><g class="mark-symbol role-legend-symbol country_legend_symbols"><path transform="translate(6,6)" d="M5,0A5,5,0,1,1,-5,0A5,5,0,1,1,5,0" stroke="#e45756" stroke-width="1.5" opacity="0.35"/></g><g class="mark-text role-legend-label country_legend_labels"><text text-anchor="start" transform="translate(16,9)" font-family="sans-serif" font-size="10px" fill="#000" opacity="0.35">France</text></g></g><path class="foreground" aria-hidden="true" d="" display="none"/></g><g transform="translate(0,48)"><path class="background" aria-hidden="true" d="M0,0h87.15234375v12.5h-87.15234375Z" opacity="1"/><g><g class="mark-symbol role-legend-symbol country_legend_symbols"><path transform="translate(6,6)" d="M5,0A5,5,0,1,1,-5,0A5,5,0,1,1,5,0" stroke="#72b7b2" stroke-width="1.5" opacity="0.35"/></g><g class="mark-text role-legend-label country_legend_labels"><text text-anchor="start" transform="translate(16,9)" font-family="sans-serif" font-size="10px" fill="#000" opacity="0.35">Ireland</text></g></g><path class="foreground" aria-hidden="true" d="" display="none"/></g><g transform="translate(0,64)"><path class="background" aria-hidden="true" d="M0,0h87.15234375v12.5h-87.15234375Z" opacity="1"/><g><g class="mark-symbol role-legend-symbol country_legend_symbols"><path transform="translate(6,6)" d="M5,0A5,5,0,1,1,-5,0A5,5,0,1,1,5,0" stroke="#54a24b" stroke-width="1.5" opacity="1"/></g><g class="mark-text role-legend-label country_legend_labels"><text text-anchor="start" transform="translate(16,9)" font-family="sans-serif" font-size="10px" fill="#000" opacity="1">Switzerland</text></g></g><path class="foreground" aria-hidden="true" d="" display="none"/></g><g transform="translate(0,80)"><path class="background" aria-hidden="true" d="M0,0h87.15234375v12.5h-87.15234375Z" opacity="1"/><g><g class="mark-symbol role-legend-symbol country_legend_symbols"><path transform="translate(6,6)" d="M5,0A5,5,0,1,1,-5,0A5,5,0,1,1,5,0" stroke="#eeca3b" stroke-width="1.5" opacity="1"/></g><g class="mark-text role-legend-label country_legend_labels"><text text-anchor="start" transform="translate(16,9)" font-family="sans-serif" font-size="10px" fill="#000" opacity="1">United Kingdom</text></g></g><path class="foreground" aria-hidden="true" d="" display="none"/></g></g></g><path class="foreground" aria-hidden="true" d="" pointer-events="none" display="none"/></g></g><g class="mark-text role-legend-title" pointer-events="none"><text text-anchor="start" transform="translate(0,9)" font-family="sans-serif" font-size="11px" font-weight="bold" fill="#000" opacity="1">Country</text></g></g><path class="foreground" aria-hidden="true" d="" pointer-events="none" display="none"/></g></g><g class="mark-group role-title"><g transform="translate(250,-17)"><path class="background" aria-hidden="true" d="M0,0h0v0h0Z" pointer-events="none"/><g><g class="mark-text role-title-text" role="graphics-symbol" aria-roledescription="title" aria-label="Title text 'Overnight stays by population'" pointer-events="none"><text text-anchor="middle" transform="translate(0,10)" font-family="sans-serif" font-size="13px" font-weight="bold" fill="#000" opacity="1">Overnight stays by population</text></g></g><path class="foreground" aria-hidden="true" d="" pointer-events="none" display="none"/></g></g></g><path class="foreground" aria-hidden="true" d="" display="none"/></g></g></g><defs><clipPath id="clip4"><rect x="0" y="0" width="500" height="300"/></clipPath><clipPath id="clip5"><rect x="0" y="0" width="500" height="300"/></clipPath><clipPath id="clip6"><rect x="0" y="0" width="500" height="300"/></clipPath></defs></svg>